<?xml version="1.0" encoding="utf-8"?>
<svg viewBox="0 0 500 500" xmlns="http://www.w3.org/2000/svg">
  <defs>
    <linearGradient id="paint0_linear" x1="718.036" y1="612.351" x2="742.652" y2="952.979" gradientUnits="userSpaceOnUse" gradientTransform="matrix(0.706262, 0, 0, 0.711395, -114.270691, -130.552236)">
      <stop stop-color="white"/>
      <stop offset="1" stop-color="#94B9FF"/>
    </linearGradient>
  </defs>
  <path d="M 1080.5 -0.5 L 1080.5 1080.5 L -0.5 1080.5 L -0.5 -0.5 Z M 0.5 1079.5 L 1079.5 1079.5 L 1079.5 0.5 L 0.5 0.5 Z" style="fill: none;" transform="matrix(1, 0, 0, 1, -208.857448, -380.977096)"/>
  <path d="M 397.357 331.283 L 267.255 331.283 L 267.255 394.927 L 397.357 394.927 L 397.357 331.283 Z" fill="#FFCCB3" style=""/>
  <path d="M 266.902 395.283 L 266.902 330.927 L 397.71 330.927 L 397.71 395.283 Z M 397.004 331.639 L 267.608 331.639 L 267.608 394.572 L 397.004 394.572 Z" style="fill: none;"/>
  <path d="M 266.488 370.52 C 251.23 385.642 245.226 460.115 246.031 501.855 L 427.66 501.855 C 427.66 501.855 427.333 410.834 413.563 380.162 C 400.9 351.954 379.85 393.563 266.488 370.52 Z" fill="#1F2D49" style=""/>
  <path d="M 413.885 380.014 C 427.671 410.759 428.013 501.853 428.013 501.853 L 428.015 502.21 L 245.685 502.21 L 245.678 501.862 C 244.874 460.104 250.929 385.501 266.24 370.266 L 266.374 370.133 L 266.558 370.171 C 323.18 381.691 356.715 377.049 377.723 373.054 C 388.22 371.059 395.628 369.211 401.209 369.641 C 406.826 370.074 410.662 372.892 413.885 380.014 Z M 401.155 370.351 C 395.685 369.929 388.371 371.754 377.853 373.753 C 356.829 377.751 323.232 382.383 266.603 370.906 C 251.495 386.213 245.612 459.714 246.378 501.499 L 427.305 501.499 C 427.266 495.289 426.996 410.907 413.241 380.308 C 410.133 373.327 406.588 370.769 401.155 370.351 Z" style="fill: none;"/>
  <path d="M 375.496 41.64 C 375.496 41.64 390.567 24.326 419.819 21.807 C 449.071 19.287 457.824 45.095 456.574 60.95 C 455.323 76.806 432.399 109.554 436.984 123.409 C 441.568 137.264 420.009 130.546 417.659 102.836 C 415.309 75.126 406.556 36.501 382.797 50.356 L 375.496 41.64 Z" fill="#080B09" style=""/>
  <path d="M 375.231 41.405 C 375.231 41.405 390.419 24.031 419.788 21.452 C 434.522 20.218 444.195 26.106 449.923 34.283 C 455.655 42.463 457.549 53.005 456.926 60.978 C 455.644 76.922 432.71 109.599 437.318 123.296 C 437.9 125.063 438.077 126.557 437.915 127.69 C 437.75 128.849 437.188 129.754 436.415 130.238 C 435.646 130.721 434.572 130.859 433.438 130.644 C 432.319 130.433 431.03 129.875 429.727 129.006 C 424.562 125.558 418.513 116.808 417.307 102.867 C 416.134 89.026 413.369 72.508 407.938 61.164 C 405.229 55.503 401.909 51.204 397.78 49.133 C 393.657 47.064 388.831 47.223 382.974 50.663 L 382.719 50.813 L 375.03 41.635 Z M 382.878 49.9 C 388.79 46.554 393.82 46.352 398.095 48.495 C 402.361 50.636 405.832 55.127 408.574 60.854 C 414.048 72.288 416.834 88.936 418.011 102.806 C 419.154 116.575 425.06 125.038 430.117 128.413 C 431.368 129.248 432.526 129.748 433.568 129.945 C 434.596 130.139 435.398 130.038 436.042 129.634 C 436.683 129.233 437.071 128.605 437.216 127.589 C 437.365 126.545 437.214 125.218 436.649 123.521 C 432.087 109.508 455.002 76.689 456.222 60.922 C 456.849 53.04 454.992 42.751 449.346 34.693 C 443.698 26.631 434.368 20.876 419.849 22.16 C 390.714 24.62 377.844 39.614 375.966 41.649 Z" style="fill: none;"/>
  <path d="M 380.07 33.535 C 380.07 33.535 383.674 31.432 386.285 36.34 C 388.894 41.247 393.769 51.211 387.59 53.853 C 381.413 56.494 380.07 33.535 380.07 33.535 Z" fill="#1C85E8" style=""/>
  <path d="M 379.893 33.227 C 379.893 33.227 380.897 32.647 382.224 32.743 C 383.511 32.834 385.207 33.64 386.596 36.171 C 387.903 38.629 389.795 42.39 390.577 45.867 C 390.97 47.611 391.087 49.345 390.701 50.785 C 390.312 52.232 389.344 53.464 387.728 54.18 C 386.87 54.524 386.006 54.457 385.313 54.044 C 384.635 53.638 384.014 52.885 383.501 51.966 C 382.487 50.15 381.724 47.474 381.168 44.756 C 380.055 39.322 379.718 33.555 379.718 33.555 L 379.704 33.331 Z M 381.86 44.612 C 382.411 47.304 383.142 49.873 384.117 51.618 C 384.599 52.481 385.097 53.087 385.674 53.432 C 386.237 53.768 386.767 53.842 387.453 53.526 C 388.926 52.92 389.665 51.915 390.019 50.598 C 390.375 49.273 390.269 47.715 389.889 46.023 C 389.126 42.632 387.276 38.957 385.973 36.508 C 384.751 34.132 383.34 33.535 382.173 33.452 C 381.045 33.371 380.738 33.604 380.437 33.744 C 380.512 34.86 380.757 39.228 381.86 44.612 Z" style="fill: none;"/>
  <path d="M 296.509 193.116 C 296.509 193.116 319.878 219.534 312.106 228.009 C 296.714 245.425 255.774 278.158 242.36 288.994 C 241.781 289.44 241.119 289.767 240.415 289.956 C 239.709 290.143 238.974 290.188 238.251 290.09 C 237.529 289.99 236.833 289.747 236.204 289.375 C 235.575 289.004 235.025 288.51 234.586 287.923 L 202.865 245.916 C 201.625 244.299 201.047 242.264 201.249 240.231 C 201.452 238.197 202.419 236.319 203.954 234.982 L 265.396 181.614 L 296.509 193.116 Z" fill="#1C85E8" style=""/>
  <path d="M 296.773 192.879 C 296.773 192.879 302.634 199.505 307.519 207.192 C 309.962 211.036 312.178 215.176 313.286 218.879 C 314.398 222.597 314.36 226.006 312.369 228.244 C 296.955 245.682 255.988 278.442 242.574 289.276 C 241.966 289.741 241.242 290.099 240.505 290.299 C 239.765 290.492 238.96 290.546 238.203 290.441 C 237.447 290.337 236.686 290.068 236.025 289.682 C 235.368 289.29 234.767 288.751 234.305 288.139 L 202.586 246.133 C 201.316 244.456 200.701 242.296 200.898 240.196 C 201.119 238.097 202.147 236.102 203.723 234.712 L 265.322 181.208 L 296.714 192.813 Z M 265.469 182.021 L 204.185 235.251 C 202.691 236.536 201.784 238.297 201.601 240.267 C 201.392 242.233 201.935 244.141 203.145 245.698 L 234.867 287.707 C 235.283 288.268 235.782 288.718 236.383 289.068 C 236.98 289.426 237.611 289.641 238.299 289.737 C 238.987 289.832 239.653 289.794 240.324 289.612 C 240.997 289.436 241.593 289.141 242.141 288.714 C 255.559 277.876 296.472 245.167 311.842 227.772 C 313.738 225.774 313.693 222.703 312.61 219.084 C 311.522 215.45 309.353 211.397 306.925 207.576 C 302.069 199.936 296.923 194.125 296.304 193.419 Z" style="fill: none;"/>
  <path d="M 259.619 226.702 C 259.619 226.702 230.497 244.137 227.872 279.169 L 233.672 286.673 C 233.672 286.673 237.313 293.066 242.36 288.994 C 247.407 284.921 270.751 266.086 270.751 266.086 L 259.619 226.702 Z" fill="#0E66AF" style=""/>
  <path d="M 270.972 266.363 C 270.972 266.363 247.628 285.199 242.581 289.271 C 241.261 290.32 239.972 290.732 238.864 290.705 C 237.746 290.676 236.719 290.215 235.921 289.651 C 234.318 288.519 233.501 287.079 233.38 286.873 L 227.51 279.279 L 227.52 279.142 C 230.23 243.971 259.438 226.397 259.438 226.397 L 259.833 226.159 L 271.155 266.216 Z M 259.407 227.252 C 255.945 229.461 230.839 244.258 228.234 279.058 L 233.966 286.474 L 233.978 286.496 C 233.978 286.496 234.846 288.024 236.326 289.069 C 237.069 289.594 237.899 289.969 238.883 289.993 C 239.877 290.019 240.937 289.703 242.139 288.717 C 247.186 284.644 268.155 267.725 270.347 265.955 Z" style="fill: none;"/>
  <path d="M 286.848 239.983 C 305.013 239.983 319.739 225.15 319.739 206.853 C 319.739 188.555 305.013 173.723 286.848 173.723 C 268.682 173.723 253.956 188.555 253.956 206.853 C 253.956 225.15 268.682 239.983 286.848 239.983 Z" fill="#1C85E8" style=""/>
  <path d="M 253.603 206.853 C 253.603 197.631 257.344 189.215 263.341 183.175 C 269.337 177.135 277.693 173.367 286.848 173.367 C 296.002 173.367 304.358 177.135 310.355 183.175 C 316.352 189.215 320.092 197.631 320.092 206.853 C 320.092 216.074 316.352 224.49 310.355 230.531 C 304.358 236.571 296.002 240.339 286.848 240.339 C 277.693 240.339 269.337 236.571 263.341 230.531 C 257.344 224.49 253.603 216.074 253.603 206.853 Z M 263.84 230.027 C 269.747 235.978 277.837 239.627 286.848 239.627 C 295.858 239.627 303.948 235.978 309.856 230.027 C 315.764 224.077 319.386 215.929 319.386 206.853 C 319.386 197.777 315.764 189.628 309.856 183.678 C 303.948 177.727 295.858 174.078 286.848 174.078 C 277.837 174.078 269.747 177.727 263.84 183.678 C 257.932 189.628 254.31 197.777 254.31 206.853 C 254.31 215.929 257.932 224.077 263.84 230.027 Z" style="fill: none;"/>
  <path d="M 201.199 310.704 L 172.455 272.37 L 199.666 251.09 L 203.931 247.631 L 233.747 286.907 L 228.555 290.669 L 201.199 310.704 Z" fill="#FFCCB3" style=""/>
  <path d="M 171.963 272.304 L 199.447 250.811 L 203.991 247.126 L 234.248 286.982 L 228.762 290.957 L 201.127 311.198 Z M 228.347 290.381 L 233.245 286.832 L 203.87 248.138 L 199.888 251.367 L 172.946 272.435 L 201.272 310.212 Z" style="fill: none;"/>
  <path d="M 228.555 290.669 C 220.855 280.285 206.376 259.99 199.666 251.09 L 203.931 247.631 L 233.672 286.674 L 228.555 290.669 Z" fill="#FF967C" style=""/>
  <path d="M 228.272 290.881 C 220.571 280.495 206.092 260.202 199.385 251.306 L 199.177 251.03 L 203.991 247.127 L 234.166 286.737 L 228.487 291.171 Z M 233.178 286.609 L 203.871 248.137 L 200.155 251.151 C 206.954 260.192 220.873 279.701 228.623 290.165 Z" style="fill: none;"/>
  <path d="M 186.39 316.023 C 199.576 316.023 210.266 305.255 210.266 291.972 C 210.266 278.689 199.576 267.922 186.39 267.922 C 173.203 267.922 162.513 278.689 162.513 291.972 C 162.513 305.255 173.203 316.023 186.39 316.023 Z" fill="#FFCCB3" style=""/>
  <path d="M 162.16 291.972 C 162.16 285.258 164.891 279.111 169.257 274.715 C 173.622 270.317 179.724 267.566 186.39 267.566 C 193.055 267.566 199.158 270.317 203.523 274.715 C 207.888 279.111 210.62 285.258 210.62 291.972 C 210.62 298.687 207.888 304.833 203.523 309.23 C 199.158 313.627 193.055 316.378 186.39 316.378 C 179.724 316.378 173.622 313.627 169.257 309.23 C 164.891 304.833 162.16 298.687 162.16 291.972 Z M 169.756 308.727 C 174.032 313.034 179.869 315.667 186.39 315.667 C 192.911 315.667 198.747 313.034 203.024 308.727 C 207.299 304.42 209.913 298.541 209.913 291.972 C 209.913 285.404 207.299 279.525 203.024 275.217 C 198.747 270.91 192.911 268.278 186.39 268.278 C 179.869 268.278 174.032 270.91 169.756 275.217 C 165.48 279.525 162.866 285.404 162.866 291.972 C 162.866 298.541 165.48 304.42 169.756 308.727 Z" style="fill: none;"/>
  <path d="M 206.607 279.035 C 206.607 279.035 129.585 165.1 126.024 155.424 C 122.56 145.975 104.367 168.713 104.367 168.713 L 163.978 299.716 L 206.607 279.035 Z" fill="#FFCCB3" style=""/>
  <path d="M 103.955 168.661 L 104.092 168.49 C 104.092 168.49 108.658 162.783 113.66 158.26 C 116.163 155.998 118.817 154 121.058 153.18 C 122.193 152.765 123.312 152.639 124.212 152.945 C 125.117 153.254 125.882 154.056 126.355 155.3 C 129.897 164.937 206.899 278.835 206.899 278.835 L 207.13 279.176 L 163.807 300.195 Z M 206.085 278.893 C 201.471 272.064 129.274 165.262 125.693 155.548 C 125.3 154.43 124.739 153.876 123.986 153.62 C 123.228 153.36 122.357 153.462 121.299 153.848 C 119.154 154.634 116.611 156.549 114.132 158.79 C 109.172 163.274 105.572 167.79 104.779 168.766 L 164.149 299.239 Z" style="fill: none;"/>
  <path d="M 312.644 120.148 L 303.384 185.173 C 303.384 185.173 300.954 193.803 311.741 195.11 C 322.529 196.417 345.53 193.498 353.745 184.679 C 361.959 175.861 359.086 171.493 359.086 171.493 L 341.664 100.915 L 312.644 120.148 Z" fill="#FFCCB3" style=""/>
  <path d="M 359.418 171.366 C 359.567 171.653 360.171 172.517 359.846 174.829 C 359.531 177.066 358.144 180.458 354.003 184.922 C 345.681 193.796 322.53 196.769 311.699 195.463 C 308.956 195.124 306.995 194.309 305.67 193.289 C 304.328 192.256 303.564 190.958 303.182 189.761 C 302.41 187.345 302.971 185.359 303.037 185.101 L 312.317 119.939 L 341.886 100.341 Z M 312.971 120.358 L 303.73 185.247 L 303.724 185.269 C 303.724 185.269 303.143 187.315 303.854 189.543 C 304.212 190.665 304.862 191.771 306.099 192.723 C 307.353 193.689 309.133 194.442 311.784 194.758 C 322.528 196.063 345.379 193.199 353.487 184.435 C 357.56 180.081 358.843 176.881 359.146 174.729 C 359.438 172.651 358.791 171.689 358.791 171.689 L 358.759 171.644 L 341.441 101.489 Z" style="fill: none;"/>
  <path d="M 311.355 128.563 L 334.004 120.505 L 305.944 162.394 L 311.355 128.563 Z" fill="#FF967C" style=""/>
  <path d="M 334.896 119.81 L 305.341 163.931 L 311.04 128.297 Z M 306.548 160.858 L 333.113 121.199 L 311.67 128.828 Z" style="fill: none;"/>
  <path d="M 287.018 39.831 C 287.018 39.831 267.587 85.82 277.714 117.338 C 284.318 137.893 298.701 141.589 331.64 126.185 C 361.841 112.061 369.685 101.376 369.685 101.376 L 374.14 50.111 C 374.14 50.111 306.752 -1.159 287.018 39.831 Z" fill="#FFCCB3" style=""/>
  <path d="M 370.029 101.507 L 369.969 101.587 C 369.969 101.587 362.057 112.328 331.789 126.508 C 315.287 134.221 303.347 137.177 294.738 135.596 C 286.091 134.008 280.715 127.787 277.378 117.448 C 267.257 85.804 286.7 39.676 286.7 39.676 C 291.706 29.351 299.757 24.756 308.919 23.791 C 318.072 22.827 328.43 25.414 338.109 29.269 C 357.466 36.98 374.352 49.828 374.352 49.828 L 374.508 49.947 Z M 337.849 29.93 C 328.214 26.093 318.026 23.547 308.993 24.498 C 299.969 25.449 292.201 29.807 287.34 39.978 C 287.056 40.65 267.918 85.834 278.05 117.228 C 281.317 127.444 286.435 133.349 294.865 134.896 C 303.332 136.451 315.054 133.553 331.491 125.863 C 361.625 111.794 368.577 102.225 369.343 101.242 L 373.771 50.278 C 372.034 48.977 357.119 37.607 337.849 29.93 Z" style="fill: none;"/>
  <path d="M 303.22 166.478 C 303.22 166.478 278.33 173.443 273.278 177.513 C 268.226 181.585 264.553 214.67 257.087 231.013 C 246.034 255.208 238.877 268.08 257.446 294.668 C 268.646 310.704 264.838 351.475 264.838 351.475 L 401.192 351.475 C 397.061 271.309 415.343 176.808 415.343 176.808 L 353.803 162.525 C 339.928 164.934 303.22 166.478 303.22 166.478 Z" fill="#1C85E8" style=""/>
  <path d="M 415.755 176.538 L 415.69 176.877 C 415.69 176.877 397.411 271.334 401.545 351.455 L 401.565 351.83 L 264.449 351.83 L 264.486 351.44 C 264.486 351.44 268.326 310.79 257.157 294.873 C 247.848 281.526 244.951 271.542 245.806 261.911 C 246.661 252.282 251.242 242.957 256.766 230.865 C 264.216 214.577 267.94 181.425 273.057 177.236 C 278.172 173.133 303.126 166.134 303.126 166.134 L 303.165 166.123 L 303.206 166.121 C 303.206 166.121 339.89 164.581 353.743 162.174 L 353.813 162.161 Z M 303.276 166.831 C 302.18 167.138 278.487 173.753 273.498 177.791 C 268.513 181.743 264.889 214.764 257.407 231.162 C 251.879 243.264 247.354 252.473 246.51 261.975 C 245.666 271.475 248.476 281.222 257.735 294.463 C 268.966 310.62 265.572 346.912 265.223 351.118 L 400.821 351.118 C 396.765 271.011 413.753 183.29 414.932 177.078 L 353.793 162.888 C 339.846 165.292 304.646 166.773 303.276 166.831 Z" style="fill: none;"/>
  <path d="M 298.868 167.77 C 298.868 167.77 300.708 155.169 306.591 154.283 C 312.474 153.394 348.42 147.949 354.011 150.32 C 359.603 152.691 366.371 167.77 366.371 167.77 C 366.371 167.77 354.894 195.966 338.415 197.449 C 321.936 198.931 293.573 193.814 296.572 183.331 C 299.571 172.847 298.868 167.77 298.868 167.77 Z" fill="#1C85E8" style=""/>
  <path d="M 298.518 167.719 C 298.518 167.719 298.984 164.532 300.192 161.236 C 300.795 159.59 301.6 157.883 302.623 156.547 C 303.65 155.205 304.986 154.188 306.539 153.931 C 312.422 153.043 348.463 147.608 354.148 149.992 C 359.832 152.454 366.693 167.624 366.693 167.624 L 366.756 167.763 L 366.698 167.906 C 366.698 167.906 363.814 174.99 358.864 182.255 C 353.919 189.513 346.798 197.007 338.446 197.804 C 330.177 198.545 318.904 197.633 310.097 195.22 C 305.687 194.011 301.843 192.409 299.313 190.45 C 298.039 189.463 297.055 188.344 296.512 187.157 C 295.967 185.963 295.852 184.608 296.233 183.233 C 299.226 172.822 298.518 167.819 298.518 167.819 L 298.511 167.77 Z M 296.911 183.429 C 296.543 184.674 296.658 185.772 297.154 186.86 C 297.654 187.953 298.522 188.941 299.743 189.886 C 302.201 191.788 305.915 193.337 310.282 194.534 C 319.027 196.929 330.174 197.836 338.384 197.095 C 346.511 196.409 353.368 189.064 358.281 181.853 C 363.189 174.649 365.556 168.801 365.986 167.777 C 365.293 166.252 359.373 152.928 353.874 150.647 C 348.378 148.289 312.526 153.746 306.644 154.634 C 305.255 154.82 304.155 155.711 303.182 156.981 C 302.205 158.257 301.447 159.867 300.854 161.483 C 299.671 164.709 299.284 167.38 299.224 167.776 C 299.288 168.355 299.916 172.872 296.911 183.429 Z" style="fill: none;"/>
  <path d="M 287.673 171.602 C 287.673 171.602 291.65 195.92 313.245 195.536 C 334.84 195.153 366.221 162.525 366.221 162.525" stroke-width="1.35709" stroke-miterlimit="10" style=""/>
  <path d="M 287.264 171.854 C 287.264 171.854 288.212 177.857 291.953 183.966 C 295.68 190.053 302.289 196.147 313.254 196.019 C 335.017 195.561 366.565 162.861 366.565 162.861 L 365.877 162.189 C 365.877 162.189 334.664 194.744 313.237 195.054 C 302.606 195.31 296.429 189.436 292.768 183.459 C 289.123 177.506 288.081 171.348 288.081 171.348 C 288.113 171.435 287.232 171.767 287.264 171.854 Z" style="fill: rgb(255, 255, 255);"/>
  <path d="M 385.516 206.852 C 385.516 206.852 364.057 221.143 370.378 235.563 C 377.486 251.776 377.424 293.533 357.026 296.15 C 320.628 300.819 336.443 307.23 353.272 311.327 C 370.101 315.423 363.211 315.427 363.211 332.989 C 363.211 345.487 402.206 356.325 401.192 346.226 C 394.412 278.658 422.597 235.873 385.516 206.852 Z" fill="#0E66AF" style=""/>
  <path d="M 401.543 346.189 C 401.65 347.554 401.085 348.673 400.046 349.365 C 399.027 350.044 397.494 350.424 395.706 350.531 C 392.154 350.741 387.311 349.932 382.477 348.421 C 377.645 346.91 372.75 344.675 369.083 342.039 C 365.405 339.396 362.858 336.227 362.858 332.989 C 362.858 324.143 364.571 319.78 364.203 317.159 C 364.024 315.892 363.419 315.106 361.769 314.289 C 360.077 313.453 357.39 312.695 353.189 311.673 C 344.762 309.622 336.448 306.931 334.881 304.128 C 334.67 303.749 334.559 303.303 334.597 302.905 C 334.633 302.511 334.826 302.072 335.134 301.697 C 335.724 300.978 336.873 300.257 338.59 299.583 C 341.988 298.251 347.867 296.967 356.982 295.798 C 361.993 295.18 365.684 292.159 368.417 287.673 C 371.155 283.178 372.832 277.279 373.667 270.908 C 375.337 258.159 373.595 243.763 370.055 235.706 C 368.46 232.023 368.603 228.295 369.742 224.88 C 370.88 221.468 373.008 218.272 375.309 215.569 C 379.915 210.157 385.321 206.556 385.321 206.556 L 385.533 206.415 L 385.733 206.571 C 404.34 221.2 406.635 239.305 405.069 262.109 C 403.504 284.9 398.151 312.458 401.543 346.189 Z M 404.364 262.059 C 405.926 239.324 403.789 221.657 385.502 207.292 C 384.477 208.002 380.388 210.694 375.845 216.031 C 373.571 218.703 371.519 221.784 370.411 225.107 C 369.304 228.428 369.136 231.894 370.701 235.419 C 374.269 243.576 376.049 258.164 374.367 271.002 C 373.525 277.424 371.806 283.469 369.019 288.046 C 366.224 292.632 362.259 295.811 357.071 296.503 C 347.987 297.667 342.193 298.935 338.846 300.247 C 337.189 300.896 336.197 301.518 335.678 302.151 C 335.431 302.451 335.326 302.691 335.299 302.973 C 335.273 303.253 335.331 303.482 335.497 303.778 C 336.945 306.372 344.953 308.937 353.354 310.981 C 357.568 312.008 360.33 312.786 362.08 313.652 C 363.871 314.536 364.699 315.618 364.902 317.059 C 365.295 319.854 363.564 324.274 363.564 332.989 C 363.564 336.002 365.891 338.873 369.493 341.46 C 373.106 344.056 377.896 346.244 382.686 347.742 C 387.475 349.238 392.19 350.027 395.664 349.82 C 397.389 349.718 398.737 349.384 399.656 348.772 C 400.556 348.173 400.988 347.421 400.841 346.261 C 397.453 312.426 402.803 284.807 404.364 262.059 Z" style="fill: none;"/>
  <path d="M 285.287 107.491 L 303.362 108.391 C 303.298 108.616 303.199 108.922 303.058 109.282 C 302.75 110.066 302.24 111.096 301.431 112.094 C 299.828 114.072 297.027 115.954 292.188 115.461 C 289.133 114.872 287.395 112.802 286.411 110.843 C 285.919 109.861 285.62 108.915 285.444 108.214 C 285.372 107.926 285.322 107.68 285.287 107.491 Z" fill="#E56441" style=""/>
  <path d="M 303.826 108.059 L 303.701 108.49 C 303.636 108.721 303.531 109.042 303.386 109.413 C 303.072 110.211 302.535 111.288 301.705 112.319 C 300.063 114.333 297.077 116.274 292.121 115.811 C 288.964 115.161 287.103 112.998 286.096 111.003 C 285.593 109.995 285.281 109.013 285.102 108.301 C 285.028 108.006 284.975 107.749 284.939 107.555 L 284.859 107.113 Z M 285.787 108.127 C 285.96 108.818 286.245 109.728 286.726 110.683 C 287.688 112.608 289.295 114.575 292.238 115.109 C 296.952 115.626 299.594 113.813 301.158 111.87 C 301.946 110.905 302.428 109.92 302.73 109.152 C 302.867 108.802 302.843 108.854 302.887 108.724 L 285.726 107.869 C 285.744 107.95 285.716 107.847 285.787 108.127 Z" style="fill: rgb(229, 100, 65);"/>
  <path d="M 286.479 77.26 C 287.235 74.438 286.307 71.734 284.406 71.217 C 282.506 70.701 280.354 72.569 279.599 75.39 C 278.843 78.211 279.771 80.915 281.671 81.432 C 283.571 81.949 285.724 80.08 286.479 77.26 Z" fill="#080B09" style=""/>
  <path d="M 281.579 81.775 C 280.543 81.463 279.703 80.549 279.305 79.391 C 278.913 78.248 278.874 76.759 279.258 75.298 C 279.656 73.839 280.433 72.572 281.342 71.783 C 282.263 70.984 283.447 70.619 284.498 70.874 C 285.535 71.186 286.375 72.102 286.772 73.259 C 287.165 74.402 287.204 75.89 286.82 77.352 C 286.422 78.81 285.645 80.077 284.735 80.867 C 283.814 81.666 282.631 82.031 281.579 81.775 Z M 284.274 80.328 C 285.105 79.607 285.781 78.529 286.138 77.167 C 286.51 75.808 286.463 74.534 286.105 73.491 C 285.752 72.461 285.178 71.765 284.314 71.562 C 283.466 71.3 282.623 71.611 281.804 72.322 C 280.973 73.042 280.297 74.12 279.94 75.483 C 279.568 76.841 279.615 78.115 279.973 79.159 C 280.325 80.188 280.899 80.884 281.763 81.088 C 282.612 81.349 283.455 81.038 284.274 80.328 Z" style="fill: none;"/>
  <path d="M 314.442 85.291 C 315.198 82.47 314.27 79.766 312.37 79.249 C 310.469 78.732 308.317 80.601 307.562 83.421 C 306.806 86.243 307.734 88.947 309.635 89.464 C 311.534 89.98 313.687 88.112 314.442 85.291 Z" fill="#080B09" style=""/>
  <path d="M 309.543 89.807 C 308.506 89.495 307.666 88.58 307.269 87.422 C 306.876 86.279 306.837 84.791 307.221 83.33 C 307.619 81.871 308.396 80.604 309.306 79.815 C 310.227 79.015 311.41 78.651 312.462 78.906 C 313.498 79.218 314.338 80.133 314.736 81.29 C 315.128 82.433 315.167 83.922 314.783 85.383 C 314.385 86.842 313.608 88.109 312.698 88.898 C 311.777 89.698 310.594 90.062 309.543 89.807 Z M 312.237 88.36 C 313.068 87.639 313.744 86.561 314.101 85.199 C 314.473 83.84 314.426 82.566 314.068 81.523 C 313.715 80.493 313.142 79.797 312.278 79.593 C 311.429 79.332 310.586 79.643 309.767 80.353 C 308.936 81.074 308.26 82.152 307.903 83.514 C 307.531 84.873 307.578 86.147 307.936 87.19 C 308.289 88.22 308.863 88.916 309.726 89.12 C 310.575 89.381 311.418 89.07 312.237 88.36 Z" style="fill: none;"/>
  <path d="M 279.408 62.691 L 293.623 66.806 C 293.871 66.856 294.127 66.813 294.346 66.687 C 294.565 66.561 294.731 66.358 294.813 66.117 C 294.878 65.666 294.852 65.206 294.735 64.765 C 294.619 64.323 294.415 63.91 294.136 63.551 C 293.856 63.191 293.508 62.892 293.11 62.673 C 292.713 62.453 292.276 62.316 291.826 62.271 L 279.616 60.976 C 278.68 60.722 278.238 62.373 279.408 62.691 Z" fill="#080B09" style=""/>
  <path d="M 291.861 61.917 C 292.346 61.968 292.85 62.127 293.28 62.361 C 293.708 62.601 294.11 62.947 294.414 63.332 C 294.712 63.722 294.951 64.198 295.076 64.673 C 295.202 65.148 295.229 65.681 295.163 66.169 L 295.158 66.206 L 295.147 66.233 C 295.034 66.529 294.795 66.838 294.522 66.996 C 294.249 67.153 293.837 67.199 293.525 67.149 L 279.316 63.034 C 278.956 62.919 278.646 62.677 278.507 62.427 C 278.365 62.171 278.325 61.813 278.375 61.551 C 278.426 61.287 278.597 60.98 278.804 60.814 C 279.013 60.646 279.381 60.569 279.707 60.633 L 279.657 60.623 Z M 279.537 61.326 L 279.524 61.32 C 279.382 61.256 279.344 61.291 279.243 61.37 C 279.142 61.453 279.099 61.531 279.069 61.687 C 279.038 61.845 279.049 61.944 279.123 62.08 C 279.202 62.22 279.275 62.304 279.5 62.347 L 293.72 66.464 C 293.905 66.513 294.005 66.474 294.17 66.378 C 294.336 66.283 294.416 66.226 294.467 66.042 C 294.526 65.635 294.502 65.262 294.394 64.856 C 294.287 64.449 294.117 64.099 293.857 63.77 C 293.602 63.436 293.309 63.183 292.94 62.984 C 292.576 62.778 292.206 62.663 291.79 62.624 L 279.579 61.33 Z" style="fill: none;"/>
  <path d="M 328.007 74.93 L 308.73 70.956 C 308.904 70.379 309.197 69.844 309.588 69.387 C 309.98 68.931 310.463 68.561 311.005 68.303 C 311.547 68.045 312.137 67.904 312.737 67.89 C 313.335 67.876 313.932 67.989 314.485 68.221 L 328.557 73.815 C 329.024 73.942 328.709 75.121 328.007 74.93 Z" fill="#080B09" style=""/>
  <path d="M 327.936 75.28 L 308.277 71.226 L 308.392 70.854 C 308.58 70.242 308.909 69.642 309.321 69.154 C 309.74 68.672 310.282 68.259 310.854 67.982 C 311.431 67.712 312.092 67.554 312.728 67.535 C 313.364 67.524 314.028 67.649 314.616 67.89 L 328.616 73.456 L 328.649 73.471 C 328.864 73.573 329.074 73.804 329.113 73.999 C 329.149 74.179 329.12 74.434 329.05 74.618 C 328.981 74.801 328.829 75.024 328.658 75.146 C 328.485 75.268 328.2 75.328 327.936 75.28 Z M 328.252 74.563 C 328.322 74.514 328.351 74.471 328.39 74.366 C 328.428 74.264 328.435 74.214 328.421 74.143 L 314.355 68.551 C 313.837 68.33 313.307 68.229 312.745 68.246 C 312.182 68.256 311.664 68.38 311.156 68.624 C 310.645 68.863 310.22 69.189 309.855 69.62 C 309.485 70.048 309.354 70.299 309.196 70.689 L 328.077 74.581 C 328.164 74.629 328.182 74.613 328.252 74.563 Z" style="fill: none;"/>
  <path d="M 295.076 78.067 L 285.932 90.469 L 289.376 95.373" stroke-width="2.23881" stroke-linecap="round" style=""/>
  <path d="M 294.441 77.592 L 285.298 89.995 L 284.956 90.457 L 285.287 90.928 L 288.73 95.832 L 290.021 94.913 L 286.909 90.48 L 295.711 78.541 Z" style="fill: rgb(229, 100, 65);"/>
  <path d="M 312.08 213.379 C 313.85 213.379 315.285 209.384 315.285 204.458 C 315.285 199.531 313.85 195.537 312.08 195.537 C 310.31 195.537 308.875 199.531 308.875 204.458 C 308.875 209.384 310.31 213.379 312.08 213.379 Z" fill="white" style=""/>
  <path d="M 308.522 204.458 C 308.522 201.966 308.89 199.674 309.481 198.029 C 309.78 197.198 310.156 196.487 310.564 196.007 C 310.985 195.511 311.549 195.181 312.08 195.181 C 312.612 195.181 313.175 195.511 313.596 196.007 C 314.004 196.487 314.38 197.198 314.679 198.029 C 315.27 199.674 315.639 201.966 315.639 204.458 C 315.639 206.949 315.27 209.241 314.679 210.887 C 314.38 211.718 314.004 212.428 313.596 212.909 C 313.175 213.404 312.612 213.735 312.08 213.735 C 311.549 213.735 310.985 213.404 310.564 212.91 C 310.156 212.428 309.78 211.718 309.481 210.887 C 308.89 209.241 308.522 206.949 308.522 204.458 Z M 310.146 210.644 C 310.427 211.428 310.742 212.024 311.101 212.446 C 311.447 212.853 311.727 213.023 312.08 213.023 C 312.434 213.023 312.713 212.853 313.059 212.446 C 313.418 212.024 313.733 211.428 314.015 210.644 C 314.583 209.061 314.932 206.893 314.932 204.458 C 314.932 202.023 314.583 199.854 314.015 198.271 C 313.733 197.487 313.418 196.891 313.059 196.469 C 312.713 196.062 312.434 195.893 312.08 195.893 C 311.727 195.893 311.447 196.062 311.101 196.47 C 310.742 196.891 310.427 197.487 310.146 198.271 C 309.577 199.854 309.228 202.023 309.228 204.458 C 309.228 206.893 309.577 209.061 310.146 210.644 Z" style="fill: none;"/>
  <path d="M 459.837 336.117 L 412.302 340.041 L 404.188 305.341 L 394.412 278.658 L 444.437 272.628 L 450.691 302.49 L 459.837 336.117 Z" fill="#FFCCB3" style=""/>
  <path d="M 412.028 340.42 L 403.849 305.443 L 393.926 278.358 L 444.716 272.236 L 451.035 302.406 L 460.29 336.437 Z M 450.351 302.584 L 444.158 273.019 L 394.898 278.957 L 404.527 305.238 L 412.576 339.661 L 459.384 335.797 Z" style="fill: none;"/>
  <path d="M 446.125 280.692 L 447.879 289.065 L 398.616 290.133 L 395.375 281.288 L 446.125 280.692 Z" fill="#FF967C" style=""/>
  <path d="M 448.313 289.412 L 398.372 290.495 L 394.871 280.938 L 446.411 280.332 Z M 395.879 281.638 L 398.86 289.772 L 447.445 288.719 L 445.839 281.051 Z" style="fill: none;"/>
  <path d="M 407.164 242.028 C 425.33 242.028 440.055 227.196 440.055 208.899 C 440.055 190.601 425.33 175.768 407.164 175.768 C 388.999 175.768 374.272 190.601 374.272 208.899 C 374.272 227.196 388.999 242.028 407.164 242.028 Z" fill="#1C85E8" style=""/>
  <path d="M 373.919 208.899 C 373.919 199.676 377.66 191.26 383.657 185.22 C 389.653 179.18 398.009 175.412 407.164 175.412 C 416.319 175.412 424.675 179.18 430.671 185.22 C 436.668 191.26 440.408 199.676 440.408 208.899 C 440.408 218.119 436.668 226.536 430.671 232.577 C 424.675 238.616 416.319 242.383 407.164 242.383 C 398.009 242.383 389.653 238.616 383.657 232.577 C 377.66 226.536 373.919 218.119 373.919 208.899 Z M 384.156 232.073 C 390.064 238.024 398.153 241.672 407.164 241.672 C 416.174 241.672 424.264 238.024 430.172 232.073 C 436.08 226.123 439.702 217.974 439.702 208.899 C 439.702 199.822 436.08 191.673 430.172 185.723 C 424.264 179.773 416.174 176.123 407.164 176.123 C 398.153 176.123 390.064 179.773 384.156 185.723 C 378.248 191.673 374.626 199.822 374.626 208.899 C 374.626 217.974 378.248 226.123 384.156 232.073 Z" style="fill: none;"/>
  <path d="M 400.82 193.322 C 400.82 193.322 435.485 187.591 438.428 198.74 C 444.788 221.16 452.605 257.154 454.506 274.367 C 454.57 275.098 454.49 275.837 454.27 276.537 C 454.05 277.237 453.695 277.888 453.224 278.449 C 452.754 279.01 452.178 279.472 451.529 279.808 C 450.881 280.144 450.172 280.347 449.446 280.407 L 397.239 284.894 C 395.218 285.083 393.203 284.487 391.606 283.226 C 390.009 281.964 388.953 280.136 388.653 278.114 L 374.515 213.63 L 400.82 193.322 Z" fill="#1C85E8" style=""/>
  <path d="M 400.763 192.972 C 400.763 192.972 409.457 191.533 418.519 191.495 C 423.049 191.475 427.708 191.807 431.405 192.847 C 435.118 193.891 437.955 195.75 438.768 198.643 C 445.13 221.074 452.954 257.104 454.858 274.335 C 454.922 275.102 454.834 275.909 454.607 276.645 C 454.373 277.377 453.985 278.088 453.494 278.678 C 452.999 279.263 452.369 279.769 451.691 280.125 C 451.01 280.473 450.237 280.695 449.476 280.76 L 397.271 285.249 C 395.185 285.432 393.036 284.807 391.388 283.505 C 389.74 282.204 388.63 280.259 388.306 278.181 L 374.122 213.486 L 400.675 192.986 Z M 374.909 213.774 L 388.998 278.038 C 389.276 279.995 390.278 281.725 391.824 282.946 C 393.37 284.166 395.251 284.736 397.206 284.541 L 449.415 280.052 C 450.108 280 450.751 279.814 451.367 279.491 C 451.987 279.174 452.509 278.756 452.954 278.219 C 453.406 277.687 453.728 277.098 453.933 276.43 C 454.146 275.764 454.219 275.1 454.155 274.403 C 452.256 257.207 444.445 221.248 438.088 198.838 C 437.429 196.155 434.83 194.549 431.215 193.533 C 427.585 192.511 423.026 192.186 418.522 192.206 C 409.516 192.246 401.889 193.511 400.964 193.66 Z" style="fill: none;"/>
  <path d="M 299.133 35.459 C 299.133 35.459 300.362 57.796 319.149 68.621 C 319.149 68.621 324.643 85.754 345.146 89.783 C 345.146 89.783 343.936 74.037 353.708 74.203 C 370.303 74.486 362.14 99.841 350.921 104.001 C 343.296 106.827 338.704 116.862 350.022 139.728 C 376.01 130.391 394.286 92.685 387.121 50.85 C 381.383 17.351 340.151 6.41 331.679 7.5 C 331.679 7.5 296.498 -4.741 277.974 28.834 C 262.138 57.536 276.927 74.666 276.927 74.666 L 285.367 49.121 C 285.367 49.121 288.892 51.615 299.133 35.459 Z" fill="#080B09" style=""/>
  <path d="M 285.59 49.573 L 277.066 75.372 L 276.661 74.899 C 276.661 74.899 272.903 70.543 271.167 62.59 C 269.44 54.679 269.725 43.095 277.665 28.661 C 287.017 11.794 300.579 6.364 311.737 5.223 C 322.922 4.079 330.818 6.84 331.716 7.138 C 336.009 6.595 348.465 9.08 360.597 15.893 C 372.719 22.7 384.547 33.94 387.47 50.79 C 391.053 71.762 388.268 91.752 381.327 107.619 C 374.381 123.496 363.203 135.349 350.141 140.063 L 349.846 140.17 L 349.707 139.887 C 344.032 128.41 342.324 120.083 343.018 114.307 C 343.717 108.48 346.92 105.124 350.798 103.667 C 356.322 101.656 361.043 94.407 362.398 87.578 C 363.074 84.175 362.898 80.982 361.543 78.568 C 360.192 76.161 357.76 74.602 353.702 74.558 C 351.345 74.496 349.733 75.395 348.513 76.8 C 347.292 78.209 346.559 80.079 346.106 82.012 C 345.2 85.875 345.498 89.755 345.498 89.755 L 345.534 90.222 L 345.078 90.133 C 334.749 88.081 328.146 82.732 324.187 77.919 C 320.209 73.081 319.125 69.626 318.858 68.863 C 309.476 63.388 304.433 55.076 301.766 48.109 C 299.091 41.121 299.094 38.457 298.875 36.517 C 294.033 44.009 290.792 47.232 288.6 48.648 C 287.472 49.377 286.618 49.593 286.091 49.613 C 285.494 49.636 285.726 49.602 285.59 49.573 Z M 285.189 48.53 L 285.569 48.83 C 285.569 48.83 285.68 48.917 286.065 48.902 C 286.518 48.886 287.185 48.716 288.219 48.049 C 290.349 46.672 293.739 43.315 298.835 35.268 L 299.424 34.337 L 299.485 35.439 C 299.485 35.439 299.789 40.967 302.425 47.854 C 305.07 54.761 309.994 62.963 319.325 68.313 L 319.443 68.382 L 319.486 68.513 C 319.486 68.513 320.837 72.729 324.731 77.464 C 328.645 82.224 334.852 87.302 344.769 89.345 C 344.72 88.181 344.487 85.817 345.419 81.849 C 345.884 79.867 346.682 77.831 347.981 76.333 C 349.283 74.833 351.184 73.826 353.713 73.847 C 357.953 73.945 360.724 75.662 362.158 78.218 C 363.59 80.768 363.784 84.227 363.091 87.718 C 361.709 94.677 356.739 102.186 351.043 104.334 C 347.297 105.704 344.392 108.778 343.719 114.393 C 343.039 120.057 344.667 128.044 350.199 139.286 C 362.995 134.592 373.783 123.101 380.681 107.333 C 387.583 91.554 390.355 71.773 386.773 50.911 C 383.957 34.26 372.3 23.279 360.253 16.514 C 348.217 9.756 335.903 7.306 331.724 7.854 L 331.642 7.864 L 331.564 7.837 C 331.564 7.837 322.846 4.802 311.809 5.931 C 300.746 7.062 287.455 12.298 278.282 29.007 C 270.386 43.276 270.148 54.608 271.857 62.437 C 273.557 70.224 275.806 72.603 276.798 73.93 Z" style="fill: none;"/>
  <path d="M 460.012 418.894 L 334.11 418.894 C 331.675 418.894 329.323 417.999 327.497 416.376 C 325.672 414.752 324.497 412.513 324.194 410.078 L 312.573 316.659 C 312.397 315.243 312.522 313.805 312.939 312.441 C 313.357 311.076 314.059 309.817 314.997 308.747 C 315.934 307.676 317.087 306.819 318.379 306.232 C 319.671 305.645 321.072 305.341 322.489 305.341 L 471.633 305.341 C 473.05 305.341 474.451 305.645 475.743 306.232 C 477.035 306.819 478.188 307.676 479.126 308.747 C 480.064 309.817 480.765 311.076 481.183 312.441 C 481.6 313.805 481.725 315.243 481.549 316.659 L 469.929 410.078 C 469.626 412.513 468.451 414.752 466.625 416.376 C 464.799 417.999 462.448 418.894 460.012 418.894 Z" fill="url(#paint0_linear)" style=""/>
  <path d="M 460.012 419.251 L 334.11 419.251 C 331.613 419.239 329.144 418.298 327.264 416.642 C 325.399 414.969 324.165 412.619 323.844 410.123 L 312.223 316.704 C 312.046 315.249 312.177 313.736 312.602 312.336 C 313.035 310.937 313.773 309.612 314.732 308.512 C 315.696 307.416 316.91 306.514 318.233 305.908 C 319.562 305.308 321.034 304.989 322.489 304.985 L 471.633 304.985 C 473.088 304.989 474.561 305.308 475.889 305.908 C 477.212 306.514 478.426 307.416 479.391 308.512 C 480.351 309.612 481.088 310.937 481.52 312.336 C 481.945 313.736 482.076 315.249 481.9 316.704 L 470.279 410.123 C 469.957 412.619 468.724 414.969 466.859 416.642 C 464.978 418.298 462.511 419.239 460.012 419.251 Z M 466.392 416.109 C 468.178 414.536 469.294 412.408 469.578 410.035 L 481.199 316.615 C 481.374 315.236 481.256 313.872 480.845 312.545 C 480.442 311.215 479.778 310.021 478.861 308.983 C 477.951 307.937 476.858 307.125 475.598 306.556 C 474.342 305.98 473.013 305.692 471.633 305.696 L 322.489 305.696 C 321.109 305.692 319.781 305.98 318.524 306.556 C 317.264 307.125 316.171 307.936 315.261 308.983 C 314.345 310.021 313.68 311.215 313.277 312.545 C 312.866 313.872 312.748 315.236 312.924 316.615 L 324.545 410.035 C 324.828 412.408 325.944 414.536 327.731 416.109 C 329.502 417.698 331.737 418.551 334.11 418.538 L 460.012 418.538 C 462.386 418.551 464.62 417.698 466.392 416.109 Z" style="fill: none;"/>
  <path d="M 397.357 369.277 C 402.238 369.277 406.194 365.291 406.194 360.376 C 406.194 355.459 402.238 351.475 397.357 351.475 C 392.476 351.475 388.52 355.459 388.52 360.376 C 388.52 365.291 392.476 369.277 397.357 369.277 Z" fill="white" style=""/>
  <path d="M 388.167 360.376 C 388.167 357.845 389.215 355.485 390.858 353.83 C 392.502 352.175 394.844 351.118 397.357 351.118 C 399.869 351.118 402.211 352.175 403.856 353.83 C 405.499 355.485 406.547 357.845 406.547 360.376 C 406.547 362.906 405.499 365.266 403.856 366.921 C 402.211 368.577 399.869 369.633 397.357 369.633 C 394.844 369.633 392.502 368.577 390.858 366.921 C 389.215 365.266 388.167 362.906 388.167 360.376 Z M 391.358 366.418 C 392.913 367.984 394.989 368.921 397.357 368.921 C 399.725 368.921 401.801 367.984 403.356 366.418 C 404.911 364.852 405.841 362.761 405.841 360.376 C 405.841 357.991 404.911 355.898 403.356 354.332 C 401.801 352.767 399.725 351.83 397.357 351.83 C 394.989 351.83 392.913 352.767 391.358 354.332 C 389.803 355.898 388.873 357.991 388.873 360.376 C 388.873 362.761 389.803 364.852 391.358 366.418 Z" style="fill: none;"/>
  <path d="M 107.64 176.198 L 100.053 161.537 C 100.053 161.537 73.227 146.079 70.118 140.491 C 67.008 134.902 65.786 118.946 71.291 114.86 C 71.291 114.86 49.887 98.667 53.531 95.386 C 57.163 91.867 99.214 123.333 99.214 123.333 C 99.214 123.333 94.095 100.152 101.874 99.065 C 103.982 108.05 107.592 116.609 112.551 124.373 C 120.742 137.13 121.751 148.555 121.751 148.555 L 131.405 167.218 L 107.64 176.198 Z" fill="#FFCCB3" style=""/>
  <path d="M 99.788 161.793 C 98.089 160.808 72.985 146.32 69.81 140.664 C 68.236 137.819 67.127 132.345 67.121 127.113 C 67.115 121.876 68.164 117.172 70.722 114.871 C 69.446 113.891 65.715 111.087 60.808 106.617 C 58.354 104.383 55.996 102.028 54.488 100.028 C 53.728 99.023 53.16 98.068 52.91 97.272 C 52.783 96.863 52.73 96.44 52.78 96.094 C 52.832 95.738 53.025 95.384 53.288 95.128 C 53.601 94.863 54.11 94.725 54.668 94.765 C 55.205 94.804 55.888 94.974 56.652 95.241 C 58.169 95.77 60.136 96.724 62.37 97.956 C 66.834 100.417 72.444 104.029 77.931 107.745 C 88.905 115.176 96.099 120.578 98.681 122.494 C 98.313 120.626 97.583 117.586 97.274 111.625 C 97.12 108.645 97.211 105.589 97.835 103.224 C 98.149 102.034 98.619 100.968 99.254 100.193 C 99.895 99.412 100.784 98.874 101.825 98.714 L 102.143 98.664 L 102.218 98.984 C 104.316 107.94 107.903 116.442 112.848 124.179 C 121.066 137.017 121.992 147.46 122.096 148.452 L 131.902 167.409 L 107.471 176.642 Z M 130.908 167.026 L 121.406 148.657 L 121.4 148.587 C 121.4 148.587 120.418 137.243 112.255 124.566 C 107.281 116.775 103.735 108.366 101.607 99.471 C 100.864 99.634 100.367 99.953 99.799 100.646 C 99.224 101.348 98.818 102.271 98.518 103.406 C 97.914 105.693 97.827 108.637 97.979 111.588 C 98.285 117.49 99.558 123.256 99.558 123.256 L 99.765 124.188 L 99.003 123.618 C 99.003 123.618 88.497 115.758 77.537 108.335 C 72.057 104.624 66.474 101.029 62.031 98.58 C 59.813 97.357 57.899 96.429 56.421 95.912 C 55.688 95.657 55.095 95.509 54.617 95.475 C 54.159 95.441 53.918 95.468 53.776 95.642 C 53.587 95.796 53.514 95.955 53.479 96.196 C 53.442 96.448 53.476 96.71 53.584 97.058 C 53.809 97.775 54.314 98.624 55.05 99.597 C 56.529 101.557 58.84 103.866 61.281 106.09 C 66.165 110.537 71.503 114.575 71.503 114.575 L 71.888 114.866 L 71.501 115.146 C 68.816 117.083 67.821 121.95 67.827 127.112 C 67.833 132.275 68.89 137.574 70.426 140.318 C 73.468 145.838 100.229 161.228 100.229 161.228 L 100.318 161.28 L 107.809 175.754 Z" style="fill: none;"/>
  <path d="M 72.733 115.269 L 85.695 123.497" stroke-width="2.87188" stroke-linecap="round" stroke-linejoin="round" style=""/>
  <path d="M 85.154 124.362 L 72.192 116.133 L 73.274 114.405 L 86.236 122.633 Z" style="fill: rgb(255, 150, 124);"/>
  <path d="M 70.801 124.683 L 81.802 131.571" stroke-width="2.87188" stroke-linecap="round" stroke-linejoin="round" style=""/>
  <path d="M 81.267 132.438 L 70.265 125.55 L 71.336 123.815 L 82.338 130.702 Z" style="fill: rgb(255, 150, 124);"/>
  <path d="M 72.939 134.859 L 80.277 139.53" stroke-width="2.87188" stroke-linecap="round" stroke-linejoin="round" style=""/>
  <path d="M 73.48 133.995 L 80.818 138.667 L 79.735 140.393 L 72.397 135.723 Z" style="fill: rgb(255, 150, 124);"/>
  <path d="M 434.375 415.083 C 434.375 415.083 441.03 415.64 440.028 419.021 C 439.025 422.403 433.084 420.842 427.659 424.225 C 422.235 427.607 400.789 430.02 390.077 428.223 C 379.365 426.424 376.389 415.083 376.389 415.083 C 376.389 415.083 374.598 404.322 393.52 403.218 C 412.442 402.112 421.248 408.228 424.539 414.857 L 434.375 415.083 Z" fill="#FFCCB3" style=""/>
  <path d="M 434.404 414.728 C 434.404 414.728 436.116 414.871 437.698 415.449 C 438.489 415.738 439.304 416.165 439.827 416.737 C 440.358 417.318 440.614 418.169 440.366 419.123 C 440.068 420.046 439.42 420.7 438.589 421.105 C 437.77 421.505 436.719 421.744 435.57 421.972 C 433.275 422.429 430.492 422.861 427.845 424.528 C 422.348 427.935 400.78 430.373 390.019 428.574 C 384.57 427.628 381.029 424.27 378.925 421.18 C 376.808 418.069 376.041 415.141 376.041 415.141 C 376.041 415.141 375.58 412.293 377.567 409.363 C 379.521 406.482 383.949 403.446 393.5 402.862 C 403.002 402.311 410.018 403.575 415.034 405.812 C 420.074 408.059 423.06 411.216 424.757 414.506 Z M 424.318 415.208 L 424.224 415.017 C 422.608 411.744 419.665 408.654 414.748 406.462 C 409.809 404.259 402.96 403.017 393.541 403.572 C 384.169 404.094 380.032 406.989 378.151 409.764 C 376.302 412.491 376.734 415.005 376.734 415.005 C 376.793 415.223 377.458 417.766 379.507 420.777 C 381.57 423.807 384.872 427.02 390.135 427.872 C 400.798 429.669 422.123 427.279 427.474 423.922 C 430.251 422.207 433.151 421.727 435.433 421.274 C 436.573 421.048 437.534 420.83 438.281 420.465 C 439.015 420.107 439.486 419.687 439.689 418.919 C 439.942 418.182 439.742 417.695 439.308 417.22 C 438.865 416.736 438.204 416.391 437.457 416.118 C 435.962 415.571 434.498 415.45 434.357 415.438 Z" style="fill: none;"/>
  <path d="M 384.433 404.889 L 388.52 415.961" stroke-width="2.23881" stroke-linecap="round" style=""/>
  <path d="M 385.174 404.612 L 389.261 415.683 L 387.779 416.238 L 383.693 405.167 Z" style="fill: rgb(229, 100, 65);"/>
  <path d="M 395.017 403.087 L 399.104 414.159" stroke-width="2.23881" stroke-linecap="round" style=""/>
  <path d="M 395.758 402.81 L 399.845 413.881 L 398.363 414.436 L 394.277 403.365 Z" style="fill: rgb(229, 100, 65);"/>
  <path d="M 406.194 404.024 L 410.281 415.096" stroke-width="2.23881" stroke-linecap="round" style=""/>
  <path d="M 406.935 403.747 L 411.021 414.819 L 409.54 415.373 L 405.453 404.302 Z" style="fill: rgb(229, 100, 65);"/>
</svg>