<?xml version="1.0" encoding="utf-8"?>
<!-- Generator: Adobe Illustrator 16.0.0, SVG Export Plug-In . SVG Version: 6.00 Build 0)  -->
<!DOCTYPE svg PUBLIC "-//W3C//DTD SVG 1.1//EN" "http://www.w3.org/Graphics/SVG/1.1/DTD/svg11.dtd">
<svg version="1.1" id="Слой_1" xmlns="http://www.w3.org/2000/svg" xmlns:xlink="http://www.w3.org/1999/xlink" x="0px" y="0px"
	 width="500.172px" height="500px" viewBox="0 0 500.172 500" enable-background="new 0 0 500.172 500" xml:space="preserve">
<g id="Clavier">
	<polygon fill="#B9B9B9" points="355.088,416.961 264.515,416.961 173.941,416.961 160.986,465.384 264.515,465.384 
		368.042,465.384 	"/>
	<path fill="#FFFFFF" d="M175.369,429.822h11.853c0.495,0,0.868,0.385,0.776,0.8l-1.148,5.155c-0.071,0.319-0.397,0.549-0.776,0.549
		h-12.055c-0.507,0-0.882-0.399-0.771-0.821l1.351-5.155C174.678,430.042,174.998,429.822,175.369,429.822z"/>
	<polygon fill="#FFFFFF" points="192.656,429.822 201.616,429.822 200.424,436.326 191.293,436.326 	"/>
	<polygon fill="#FFFFFF" points="206.097,429.822 215.057,429.822 214.119,436.326 204.988,436.336 	"/>
	<polygon fill="#FFFFFF" points="219.536,429.822 228.497,429.822 227.815,436.326 218.685,436.326 	"/>
	<polygon fill="#FFFFFF" points="232.978,429.822 241.937,429.822 241.512,436.326 232.381,436.326 	"/>
	<polygon fill="#FFFFFF" points="246.418,429.822 255.378,429.822 255.207,436.326 246.077,436.336 	"/>
	<polygon fill="#FFFFFF" points="353.97,429.822 340.53,429.822 341.978,436.326 355.674,436.326 	"/>
	<polygon fill="#FFFFFF" points="336.05,429.822 327.09,429.822 328.282,436.326 337.412,436.326 	"/>
	<polygon fill="#FFFFFF" points="322.609,429.822 313.648,429.822 314.586,436.326 323.719,436.336 	"/>
	<polygon fill="#FFFFFF" points="309.169,429.822 300.209,429.822 300.89,436.326 310.021,436.326 	"/>
	<polygon fill="#FFFFFF" points="295.729,429.822 286.769,429.822 287.194,436.326 296.324,436.326 	"/>
	<polygon fill="#FFFFFF" points="282.288,429.822 273.327,429.822 273.498,436.326 282.63,436.336 	"/>
	<polygon fill="#FFFFFF" points="259.857,429.822 268.818,429.822 268.967,436.326 259.857,436.326 	"/>
	<polygon fill="#FFFFFF" points="171.427,441.173 190.149,441.173 189.084,447.882 170.005,447.882 	"/>
	<polygon fill="#FFFFFF" points="356.894,441.173 333.749,441.173 335.068,447.882 358.651,447.882 	"/>
	<polygon fill="#FFFFFF" points="329.12,441.173 319.863,441.173 320.918,447.882 330.352,447.882 	"/>
	<polygon fill="#FFFFFF" points="315.234,441.173 305.977,441.173 306.768,447.882 316.201,447.882 	"/>
	<polygon fill="#FFFFFF" points="301.348,441.173 292.09,441.173 292.618,447.882 302.051,447.882 	"/>
	<polygon fill="#FFFFFF" points="287.462,441.173 278.204,441.173 278.468,447.882 287.901,447.882 	"/>
	<polygon fill="#FFFFFF" points="168.63,453.133 187.771,453.133 186.374,459.798 166.884,459.798 	"/>
	<polygon fill="#FFFFFF" points="192.557,453.133 202.127,453.133 200.993,459.798 191.247,459.798 	"/>
	<polygon fill="#FFFFFF" points="206.913,453.133 216.483,453.133 278.688,453.133 278.956,459.798 205.865,459.798 	"/>
	<polygon fill="#FFFFFF" points="283.479,453.133 293.051,453.133 293.574,459.798 283.829,459.798 	"/>
	<polygon fill="#FFFFFF" points="297.836,453.133 307.406,453.133 308.192,459.798 298.447,459.798 	"/>
	<polygon fill="#FFFFFF" points="312.191,453.133 321.764,453.133 322.811,459.798 313.064,459.798 	"/>
	<polygon fill="#FFFFFF" points="326.548,453.133 336.119,453.133 337.428,459.798 327.683,459.798 	"/>
	<polygon fill="#FFFFFF" points="340.904,453.133 360.047,453.133 361.792,459.798 342.302,459.798 	"/>
	<polygon fill="#FFFFFF" points="273.595,441.173 264.412,441.173 264.412,447.882 273.771,447.882 	"/>
	<polygon fill="#FFFFFF" points="259.709,441.173 250.451,441.173 250.188,447.882 259.621,447.882 	"/>
	<polygon fill="#FFFFFF" points="245.823,441.173 236.564,441.173 236.038,447.882 245.472,447.882 	"/>
	<polygon fill="#FFFFFF" points="231.937,441.173 222.679,441.173 221.888,447.882 231.321,447.882 	"/>
	<polygon fill="#FFFFFF" points="218.05,441.173 208.792,441.173 207.738,447.882 217.172,447.882 	"/>
	<polygon fill="#FFFFFF" points="204.164,441.173 194.906,441.173 193.589,447.882 203.021,447.882 	"/>
	<polygon fill="#FFFFFF" points="175.807,425.734 177.327,419.927 181.678,419.927 180.258,425.734 	"/>
	<polygon fill="#FFFFFF" points="186.028,419.927 194.729,419.927 193.513,425.734 184.659,425.734 	"/>
	<polygon fill="#FFFFFF" points="199.08,419.927 207.781,419.927 206.793,425.734 197.939,425.734 	"/>
	<polygon fill="#FFFFFF" points="212.132,419.927 220.832,419.927 220.071,425.734 211.219,425.734 	"/>
	<polygon fill="#FFFFFF" points="225.184,419.927 233.885,419.927 233.352,425.734 224.499,425.734 	"/>
	<polygon fill="#FFFFFF" points="238.235,419.927 246.936,419.927 246.631,425.734 237.778,425.734 	"/>
	<polygon fill="#FFFFFF" points="251.286,419.927 259.987,419.927 259.911,425.734 251.058,425.734 	"/>
	<polygon fill="#FFFFFF" points="264.338,419.927 273.039,419.927 273.19,425.734 264.338,425.734 	"/>
	<polygon fill="#FFFFFF" points="277.39,419.927 286.09,419.927 286.471,425.734 277.618,425.734 	"/>
	<polygon fill="#FFFFFF" points="290.44,419.927 299.143,419.927 299.751,425.734 290.897,425.734 	"/>
	<polygon fill="#FFFFFF" points="303.492,419.927 312.193,419.927 313.03,425.734 304.177,425.734 	"/>
	<polygon fill="#FFFFFF" points="316.544,419.927 325.245,419.927 326.311,425.734 317.456,425.734 	"/>
	<polygon fill="#FFFFFF" points="329.596,419.927 338.297,419.927 339.59,425.734 330.736,425.734 	"/>
	<polygon fill="#FFFFFF" points="342.647,419.927 351.348,419.927 352.869,425.734 344.017,425.734 	"/>
	<rect x="160.986" y="465.384" fill="#B9B9B9" width="207.056" height="2.856"/>
</g>
<g id="Pied_ordinateur">
	<g>
		<rect x="250.886" y="314.409" fill="#518AFA" width="28.496" height="86.552"/>
	</g>
	<rect x="201.034" y="397.694" fill="#B9B9B9" width="128.2" height="6.534"/>
</g>
<g id="Bord-ecran">
	<path fill="#B9B9B9" d="M150.764,356.103h228.742c4.783,0,8.66-3.878,8.66-8.661V191.178c0-4.783-3.877-8.661-8.66-8.661H150.764
		c-4.783,0-8.661,3.878-8.661,8.661v156.264C142.103,352.225,145.98,356.103,150.764,356.103z"/>
</g>
<g id="Fond-ecran">
	<linearGradient id="SVGID_1_" gradientUnits="userSpaceOnUse" x1="150.7998" y1="257.7852" x2="379.0322" y2="257.7852">
		<stop  offset="0" style="stop-color:#404B61"/>
		<stop  offset="0.486" style="stop-color:#3C4860"/>
		<stop  offset="1" style="stop-color:#2F3E5C"/>
	</linearGradient>
	<rect x="150.8" y="191.02" fill="url(#SVGID_1_)" width="228.232" height="133.53"/>
</g>
<g id="Bouton-ecran">
	<circle fill="#696969" cx="265.135" cy="341.348" r="7.938"/>
</g>

<g id="Symboles-ecran">
	<g class="symboles1">
		<rect x="163.918" y="201.243" fill="#E0E0E0" width="25.561" height="2.617"/>
	</g>
	<g class="symboles1">
		<rect x="196.633" y="220.951" fill="#E0E0E0" width="18.455" height="2.617"/>
	</g>
	<g class="symboles1">
		<rect x="217.964" y="220.951" fill="#1487E3" width="12.246" height="2.617"/>
	</g>
	<g class="symboles1">
		<rect x="242.985" y="300.072" fill="#1487E3" width="12.246" height="2.617"/>
	</g>
	<g class="symboles1">
		<rect x="164.208" y="270.511" fill="#1487E3" width="12.247" height="2.617"/>
	</g>
	<g class="symboles1">
		<rect x="232.631" y="220.951" fill="#E0E0E0" width="29.568" height="2.617"/>
	</g>
	<g class="symboles1">
		<rect x="164.208" y="260.585" fill="#E0E0E0" width="19.001" height="2.617"/>
	</g>
	<g class="symboles1">
		<rect x="215.262" y="280.365" fill="#E0E0E0" width="19.001" height="2.617"/>
	</g>
	<g class="symboles1">
		<rect x="286.235" y="300.072" fill="#E0E0E0" width="19" height="2.617"/>
	</g>
	<g class="symboles2">
		<rect x="190.693" y="280.365" fill="#E0E0E0" width="11.6" height="2.617"/>
	</g>
	<g class="symboles2">
		<rect x="164.208" y="280.365" fill="#1487E3" width="22.981" height="2.617"/>
	</g>
	<g class="symboles2">
		<rect x="164.208" y="290.219" fill="#E0E0E0" width="12.675" height="2.617"/>
	</g>
	<g class="symboles2">
		<rect x="194.452" y="201.243" fill="#78C2FF" width="18.146" height="2.617"/>
	</g>
	<g class="symboles2">
		<rect x="194.452" y="230.805" fill="#1487E3" width="18.146" height="2.617"/>
	</g>
	<g class="symboles2">
		<rect x="185.38" y="240.659" fill="#E0E0E0" width="7.752" height="2.616"/>
	</g>
	<g class="symboles2">
		<rect x="177.626" y="250.658" fill="#78C2FF" width="17.415" height="2.617"/>
	</g>
	<g class="symboles2">
		<rect x="197.674" y="250.658" fill="#1487E3" width="24.041" height="2.617"/>
	</g>
	<g class="symboles3">
		<rect x="273.81" y="290.219" fill="#1487E3" width="24.041" height="2.617"/>
	</g>
	<g class="symboles3">
		<rect x="164.208" y="240.731" fill="#1487E3" width="18.146" height="2.617"/>
	</g>
	<g class="symboles3">
		<rect x="164.208" y="250.658" fill="#1487E3" width="10.768" height="2.617"/>
	</g>
	<g class="symboles3">
		<rect x="196.788" y="240.731" fill="#FF8761" width="10.157" height="2.617"/>
	</g>
	<g class="symboles3">
		<rect x="164.512" y="300.072" fill="#FF8761" width="10.159" height="2.617"/>
	</g>
	<g class="symboles3">
		<rect x="164.136" y="220.951" fill="#78C2FF" width="18.146" height="2.617"/>
	</g>
	<g class="symboles3">
		<rect x="180.183" y="270.511" fill="#78C2FF" width="18.146" height="2.617"/>
	</g>
	<g class="symboles3">
		<rect x="180.406" y="290.219" fill="#78C2FF" width="18.146" height="2.617"/>
	</g>
	<g class="symboles3">
		<rect x="212.642" y="290.219" fill="#78C2FF" width="18.146" height="2.617"/>
	</g>
	<g class="symboles3">
		<rect x="164.136" y="230.805" fill="#78C2FF" width="25.867" height="2.617"/>
	</g>
	<g class="symboles3">
		<rect x="285.35" y="201.243" fill="#78C2FF" width="18.146" height="2.617"/>
	</g>
	<g class="symboles4">
		<rect x="220.707" y="300.072" fill="#78C2FF" width="18.146" height="2.617"/>
	</g>
	<g class="symboles4">
		<rect x="309.142" y="201.243" fill="#78C2FF" width="12.146" height="2.617"/>
	</g>
	<g class="symboles4">
		<rect x="350.238" y="211.097" fill="#78C2FF" width="12.146" height="2.617"/>
	</g>
	<g class="symboles4">
		<rect x="217.483" y="201.243" fill="#1487E3" width="23.119" height="2.617"/>
	</g>
	<g class="symboles4">
		<rect x="309.142" y="300.072" fill="#1487E3" width="23.119" height="2.617"/>
	</g>
	<g class="symboles4">
		<rect x="178.506" y="300.072" fill="#1487E3" width="23.118" height="2.617"/>
	</g>
	<g class="symboles4">
		<rect x="307.562" y="211.097" fill="#1487E3" width="23.119" height="2.617"/>
	</g>
	<g class="symboles4">
		<rect x="279.208" y="220.951" fill="#1487E3" width="23.119" height="2.617"/>
	</g>
	<g class="symboles4">
		<rect x="259.119" y="300.072" fill="#1487E3" width="23.119" height="2.617"/>
	</g>
	<g class="symboles4">
		<rect x="255.561" y="280.365" fill="#1487E3" width="23.119" height="2.617"/>
	</g>
	<g class="symboles4">
		<rect x="249.108" y="230.805" fill="#1487E3" width="23.119" height="2.617"/>
	</g>
	<g class="symboles4">
		<rect x="205.924" y="280.365" fill="#FF8761" width="4.984" height="2.617"/>
	</g>
	<g class="symboles4">
		<rect x="305.235" y="220.951" fill="#78C2FF" width="16.435" height="2.617"/>
	</g>
	<g class="symboles4">
		<rect x="257.702" y="201.243" fill="#FF8761" width="23.118" height="2.617"/>
	</g>
	<g  class="symboles5">
		<rect x="231.322" y="230.805" fill="#FF8761" width="13.555" height="2.617"/>
	</g>
	<g class="symboles5">
		<rect x="220.707" y="270.657" fill="#FF8761" width="13.556" height="2.617"/>
	</g>
	<g class="symboles5">
		<rect x="244.877" y="201.243" fill="#E0E0E0" width="8.463" height="2.617"/>
	</g>
	<g class="symboles5">
		<rect x="217.483" y="230.805" fill="#E0E0E0" width="8.462" height="2.617"/>
	</g>
	<g class="symboles5">
		<rect x="336.256" y="211.097" fill="#E0E0E0" width="8.463" height="2.617"/>
	</g>
	<g class="symboles5">
		<rect x="163.918" y="211.097" fill="#1487E3" width="13.238" height="2.617"/>
	</g>
	<g class="symboles5">
		<rect x="199.241" y="260.657" fill="#1487E3" width="10.453" height="2.617"/>
	</g>
	<g class="symboles5">
		<rect x="180.406" y="211.097" fill="#1487E3" width="4.275" height="2.617"/>
	</g>
	<g class="symboles5">
		<rect x="268.164" y="211.097" fill="#E0E0E0" width="35.332" height="2.617"/>
	</g>
	<g class="symboles5">
		<rect x="234.263" y="290.219" fill="#E0E0E0" width="35.332" height="2.617"/>
	</g>
	<g class="symboles5">
		<rect x="187.822" y="211.097" fill="#FF8761" width="4.362" height="2.617"/>
	</g>
	<g class="symboles5">
		<rect x="253.34" y="211.097" fill="#1487E3" width="11.559" height="2.617"/>
	</g>
	<g class="symboles5">
		<rect x="264.898" y="220.951" fill="#FF8761" width="11.561" height="2.617"/>
	</g>
	<g class="symboles6">
		<rect x="239.098" y="280.365" fill="#FF8761" width="11.559" height="2.617"/>
	</g>
	<g class="symboles6">
		<rect x="205.459" y="300.072" fill="#FF8761" width="11.56" height="2.617"/>
	</g>
	<g class="symboles6">
		<rect x="225.684" y="211.097" fill="#1487E3" width="24.597" height="2.617"/>
	</g>
	<g class="symboles6">
		<rect x="282.911" y="280.365" fill="#1487E3" width="24.596" height="2.617"/>
	</g>
	<g class="symboles6">
		<rect x="202.791" y="270.657" fill="#1487E3" width="14.369" height="2.617"/>
	</g>
	<g class="symboles6">
		<rect x="201.867" y="290.219" fill="#1487E3" width="7.185" height="2.617"/>
	</g>
	<g class="symboles6">
		<rect x="213.731" y="211.097" fill="#78C2FF" width="8.463" height="2.617"/>
	</g>
	<g class="symboles6">
		<rect x="301.004" y="290.219" fill="#FF8761" width="8.462" height="2.617"/>
	</g>
	<g class="symboles6">
		<rect x="185.248" y="220.951" fill="#FF8761" width="8.463" height="2.617"/>
	</g>
	<g class="symboles6">
		<rect x="186.935" y="260.657" fill="#FF8761" width="8.463" height="2.617"/>
	</g>
	<g class="symboles6">
		<rect x="195.761" y="211.097" fill="#1487E3" width="14.743" height="2.617"/>
	</g>
</g>
<!-- <g>
	<g>
		<g>
			<path fill="#323657" d="M160.679,310.283c-0.003-0.001-0.007-0.002-0.011-0.001C160.715,310.303,160.722,310.305,160.679,310.283
				z"/>
		</g>
	</g>
</g> -->
<g id="Symboles">
<g id="Security">
	<g>
		<path fill="#6AAFE8" d="M340.53,124.527l-0.199-0.102c-20.712-10.574-17.93-31.055-17.899-31.26l0.055-0.372h0.377
			c13.168,0,17.308-4.244,17.347-4.287l0.321-0.341l0.318,0.342c0.04,0.042,4.179,4.286,17.348,4.286h0.376l0.055,0.372
			c0.03,0.205,2.813,20.686-17.9,31.26L340.53,124.527z M323.253,93.666c-0.262,2.773-1.134,20.353,17.277,29.881
			c18.427-9.537,17.541-27.109,17.276-29.881c-11.435-0.072-16.087-3.256-17.276-4.267C339.34,90.409,334.687,93.594,323.253,93.666
			z"/>
	</g>
	<g>
		<polygon fill="#78C2FF" points="294.01,222.26 293.138,222.26 293.138,159.807 340.094,159.807 340.094,118.886 340.966,118.886 
			340.966,160.678 294.01,160.678 		"/>
	</g>
	<g>
		<polygon fill="#6AAFE8" points="369.4,135.33 361.913,135.33 361.913,134.458 368.527,134.458 368.527,127.851 369.4,127.851 		
			"/>
	</g>
	<g>
		<polygon fill="#6AAFE8" points="319.062,135.33 311.575,135.33 311.575,127.851 312.447,127.851 312.447,134.458 319.062,134.458 
					"/>
	</g>
	<g>
		<polygon fill="#6AAFE8" points="312.451,84.995 311.578,84.995 311.578,77.508 319.058,77.508 319.058,78.381 312.451,78.381 		
			"/>
	</g>
	<g>
		<polygon fill="#6AAFE8" points="369.4,84.991 368.527,84.991 368.527,78.384 361.913,78.384 361.913,77.513 369.4,77.513 		"/>
	</g>
	<g>
		<rect x="368.527" y="96.17" fill="#6AAFE8" width="0.873" height="20.502"/>
	</g>
	<g>
		<rect x="311.575" y="96.17" fill="#6AAFE8" width="0.872" height="20.502"/>
	</g>
	<g>
		<path fill="#78C2FF" d="M340.53,119.322c-1.767,0-3.204-1.437-3.204-3.203c0-1.768,1.438-3.204,3.204-3.204
			s3.204,1.437,3.204,3.204C343.734,117.886,342.297,119.322,340.53,119.322z M340.53,113.787c-1.286,0-2.332,1.046-2.332,2.332
			c0,1.285,1.046,2.331,2.332,2.331c1.285,0,2.331-1.046,2.331-2.331C342.861,114.833,341.815,113.787,340.53,113.787z"/>
	</g>
</g>
<g id="Cloud_gauche">
	<g>
		<path fill="#6AAFE8" d="M126.474,199.291H68.109l0.102-0.52c0.937-4.808,5.179-8.298,10.086-8.298c0.709,0,1.415,0.074,2.104,0.22
			c3.041-5.778,8.948-9.354,15.5-9.354c5.582,0,10.845,2.679,14.144,7.184c1.203-0.366,2.452-0.551,3.72-0.551
			c6.351,0,11.664,4.548,12.631,10.815L126.474,199.291z M69.183,198.418h56.261c-1.097-5.492-6.029-9.574-11.68-9.574
			c-1.283,0-2.545,0.203-3.752,0.605l-0.308,0.101l-0.187-0.265c-3.122-4.429-8.212-7.073-13.618-7.073
			c-6.333,0-12.034,3.518-14.876,9.178l-0.156,0.312l-0.338-0.084c-0.727-0.18-1.478-0.271-2.232-0.271
			C73.985,191.347,70.234,194.29,69.183,198.418z"/>
	</g>
	<g>
		<polygon fill="#78C2FF" points="165.446,242.477 101.226,242.477 101.226,195.29 102.099,195.29 102.099,241.604 165.446,241.604 
					"/>
	</g>
	<g>
		<path fill="#78C2FF" d="M101.663,195.727c-1.767,0-3.204-1.438-3.204-3.205c0-1.767,1.437-3.203,3.204-3.203
			s3.204,1.437,3.204,3.203C104.866,194.289,103.429,195.727,101.663,195.727z M101.663,190.19c-1.286,0-2.332,1.046-2.332,2.331
			c0,1.286,1.046,2.332,2.332,2.332s2.332-1.046,2.332-2.332C103.994,191.236,102.948,190.19,101.663,190.19z"/>
	</g>
</g>
<!-- <g id="Plus">
	<g>
		<path fill="#A1D4FF" d="M122.623,103.834h-21.994V81.839h21.994V103.834z M101.501,102.961h20.249V82.712h-20.249V102.961z"/>
	</g>
	<g>
		<rect x="111.19" y="87.835" fill="#A1D4FF" width="0.873" height="10.25"/>
	</g>
	<g>
		<rect x="106.501" y="92.523" fill="#A1D4FF" width="10.25" height="0.872"/>
	</g>
</g> -->
<!-- <g id="Enveloppe">
	<g>
		<path fill="#A1D4FF" d="M457.78,130.363h-31.437v-22.442h31.437V130.363z M427.216,129.491h29.692v-20.697h-29.692V129.491z"/>
	</g>
	<g>
		<polygon fill="#A1D4FF" points="442.063,121.515 426.502,108.694 427.057,108.021 442.063,120.385 457.067,108.021 
			457.622,108.694 		"/>
	</g>
	<g>
		
			<rect x="443.505" y="123.544" transform="matrix(0.6881 0.7256 -0.7256 0.6881 230.8326 -289.0854)" fill="#A1D4FF" width="16.396" height="0.872"/>
	</g>
	<g>
		
			<rect x="431.985" y="115.781" transform="matrix(0.7259 0.6878 -0.6878 0.7259 203.8032 -263.4385)" fill="#A1D4FF" width="0.872" height="16.396"/>
	</g>
</g> -->
<g id="Engrenage">
	<g id="Engrenage-gauche">
		<path fill="#A1D4FF" d="M177.503,152.908l-0.326-0.854c-0.293-0.039-0.582-0.104-0.861-0.197l-0.667,0.626l-1.938-1.379
			l0.374-0.836c-0.18-0.232-0.337-0.484-0.469-0.748l-0.915-0.029l-0.395-2.344l0.854-0.327c0.038-0.294,0.104-0.582,0.197-0.86
			l-0.627-0.668l1.379-1.938l0.837,0.374c0.232-0.18,0.483-0.336,0.747-0.469l0.029-0.915l2.345-0.396l0.327,0.855
			c0.293,0.038,0.581,0.104,0.86,0.197l0.667-0.626l1.938,1.378l-0.373,0.836c0.179,0.233,0.336,0.483,0.469,0.748l0.914,0.03
			l0.396,2.344l-0.855,0.327c-0.038,0.292-0.104,0.58-0.196,0.86l0.626,0.668l-1.379,1.936l-0.835-0.372
			c-0.233,0.18-0.484,0.336-0.749,0.469l-0.029,0.914L177.503,152.908z M176.163,151.102l0.192,0.074
			c0.347,0.133,0.71,0.216,1.083,0.248l0.205,0.018l0.279,0.732l1.288-0.217l0.024-0.785l0.188-0.082
			c0.342-0.153,0.658-0.352,0.942-0.591l0.157-0.132l0.716,0.319l0.757-1.063l-0.536-0.571l0.073-0.192
			c0.133-0.347,0.217-0.711,0.249-1.084l0.017-0.204l0.733-0.28l-0.217-1.287l-0.784-0.026l-0.084-0.187
			c-0.152-0.342-0.351-0.658-0.59-0.942l-0.132-0.157l0.319-0.715l-1.063-0.758l-0.571,0.536l-0.191-0.073
			c-0.348-0.133-0.712-0.217-1.085-0.248l-0.203-0.018l-0.281-0.732l-1.288,0.217l-0.024,0.784l-0.188,0.083
			c-0.342,0.152-0.658,0.351-0.942,0.59l-0.157,0.133l-0.716-0.32l-0.757,1.064l0.537,0.571l-0.073,0.191
			c-0.134,0.347-0.217,0.712-0.249,1.084l-0.018,0.204l-0.733,0.281l0.217,1.287l0.784,0.024l0.085,0.188
			c0.151,0.341,0.351,0.658,0.589,0.942l0.133,0.156l-0.32,0.716l1.063,0.758L176.163,151.102z M177.782,150.013
			c-0.519,0-1.042-0.155-1.496-0.479l0,0c-0.563-0.399-0.935-0.995-1.05-1.676c-0.113-0.681,0.044-1.365,0.443-1.929
			c0.826-1.162,2.443-1.434,3.605-0.607c1.16,0.826,1.434,2.444,0.607,3.604C179.389,149.636,178.591,150.013,177.782,150.013z
			 M177.789,145.499c-0.604,0-1.2,0.282-1.576,0.811c-0.299,0.42-0.416,0.932-0.331,1.439c0.086,0.509,0.365,0.953,0.784,1.252
			v0.001c0.868,0.617,2.075,0.414,2.693-0.454c0.617-0.867,0.413-2.075-0.454-2.692
			C178.566,145.614,178.176,145.499,177.789,145.499z"/>
	</g>
	<g  id="Engrenage-droite">
		<path fill="#A1D4FF" d="M159.341,155.644l-0.73-1.908c-0.783-0.089-1.553-0.265-2.292-0.526l-1.488,1.398l-4.044-2.878
			l0.833-1.864c-0.489-0.614-0.908-1.283-1.248-1.993l-2.042-0.065l-0.824-4.894l1.908-0.73c0.088-0.783,0.264-1.551,0.525-2.292
			l-1.397-1.489l2.877-4.042l1.865,0.831c0.613-0.489,1.281-0.907,1.993-1.247l0.064-2.042l4.895-0.825l0.729,1.908
			c0.783,0.089,1.553,0.265,2.292,0.525l1.489-1.397l4.044,2.878l-0.833,1.864c0.489,0.614,0.907,1.282,1.248,1.993l2.042,0.065
			l0.823,4.894l-1.907,0.73c-0.088,0.783-0.265,1.551-0.525,2.292l1.397,1.489l-2.878,4.044l-1.864-0.833
			c-0.613,0.489-1.282,0.907-1.994,1.247l-0.063,2.042L159.341,155.644z M156.117,152.202l0.256,0.098
			c0.827,0.317,1.697,0.517,2.587,0.594l0.271,0.023l0.669,1.747l3.485-0.588l0.059-1.87l0.25-0.111
			c0.814-0.363,1.571-0.837,2.25-1.408l0.209-0.176l1.707,0.763l2.05-2.879l-1.279-1.364l0.098-0.255
			c0.316-0.828,0.516-1.698,0.592-2.587l0.023-0.272l1.748-0.669l-0.587-3.484l-1.87-0.06l-0.111-0.25
			c-0.363-0.814-0.837-1.57-1.408-2.249l-0.176-0.21l0.762-1.707l-2.878-2.049l-1.364,1.279l-0.256-0.098
			c-0.827-0.317-1.698-0.517-2.587-0.594l-0.271-0.023l-0.669-1.747l-3.485,0.588l-0.06,1.87l-0.25,0.111
			c-0.814,0.363-1.571,0.837-2.249,1.408l-0.209,0.176l-1.708-0.763l-2.049,2.88l1.279,1.363l-0.098,0.255
			c-0.316,0.828-0.517,1.698-0.593,2.587l-0.023,0.272l-1.747,0.669l0.586,3.484l1.871,0.06l0.11,0.25
			c0.364,0.814,0.838,1.57,1.408,2.25l0.176,0.209l-0.762,1.707l2.88,2.049L156.117,152.202z M159.78,149.003
			c-1.133,0-2.274-0.339-3.265-1.045c-2.537-1.805-3.131-5.335-1.326-7.87c0.874-1.229,2.175-2.044,3.661-2.294
			c1.487-0.251,2.981,0.093,4.21,0.968c2.536,1.805,3.131,5.335,1.326,7.87C163.287,148.178,161.547,149.003,159.78,149.003z
			 M159.798,138.587c-0.267,0-0.534,0.022-0.803,0.067c-1.257,0.211-2.356,0.9-3.095,1.938c-1.526,2.144-1.023,5.13,1.121,6.654
			c2.144,1.527,5.129,1.023,6.654-1.12c0.739-1.039,1.03-2.303,0.818-3.561c-0.213-1.257-0.9-2.356-1.939-3.094
			C161.738,138.89,160.781,138.587,159.798,138.587z"/>
	</g>
</g>
<g id="Check">
	<g>
		<g>
			<g>
				<path fill="#78C2FF" d="M27.012,264.23c-8.975,0-16.276-7.302-16.276-16.276h0.872c0,8.493,6.911,15.404,15.404,15.404
					c8.494,0,15.404-6.911,15.404-15.404c0-8.494-6.91-15.404-15.404-15.404v-0.873c8.975,0,16.277,7.302,16.277,16.277
					C43.289,256.929,35.987,264.23,27.012,264.23z M27.012,261.968c-7.727,0-14.014-6.287-14.014-14.014
					c0-7.728,6.287-14.015,14.014-14.015s14.013,6.287,14.013,14.015h-0.872c0-7.246-5.895-13.142-13.141-13.142
					c-7.247,0-13.141,5.896-13.141,13.142c0,7.245,5.895,13.141,13.141,13.141V261.968z"/>
			</g>
		</g>
	</g>
	<g>
		<polygon fill="#78C2FF" points="25.019,253.346 19.147,247.475 19.764,246.858 25.019,252.112 34.26,242.87 34.877,243.486 		"/>
	</g>
</g>
<g id="Ampoule">
	<g>
		<path fill="#78C2FF" d="M87.765,358.944c-1.767,0-3.204-1.437-3.204-3.203c0-1.768,1.437-3.204,3.204-3.204
			s3.204,1.437,3.204,3.204C90.969,357.508,89.531,358.944,87.765,358.944z M87.765,353.41c-1.286,0-2.332,1.045-2.332,2.331
			c0,1.285,1.046,2.332,2.332,2.332s2.332-1.047,2.332-2.332C90.097,354.455,89.05,353.41,87.765,353.41z"/>
	</g>
	<g>
		<path fill="#78C2FF" d="M60.502,412.132c-2.047,0-3.718-1.66-3.728-3.711l-0.003-0.558c-2.194-0.712-3.707-2.757-3.718-5.087
			l-0.055-11.169l2.217-0.01c-0.856-13.893-11.284-33.333-11.39-33.53c-3.186-4.823-4.88-10.471-4.88-16.301
			c0-16.372,13.32-29.692,29.693-29.692c16.372,0,29.692,13.32,29.692,29.692c0,5.831-1.694,11.479-4.9,16.334
			c-0.412,0.771-10.458,19.628-11.36,33.364l2.15-0.011l0.055,11.169c0.012,2.329-1.48,4.389-3.667,5.123l0.002,0.558
			c0.01,2.056-1.654,3.736-3.709,3.746l-16.382,0.082C60.514,412.132,60.508,412.132,60.502,412.132z M53.875,392.477l0.051,10.296
			c0.01,2.047,1.403,3.832,3.388,4.34l0.326,0.084l0.006,1.221c0.008,1.575,1.279,2.833,2.87,2.842l16.381-0.081
			c1.575-0.008,2.849-1.295,2.842-2.87l-0.006-1.221L80.059,407c1.98-0.527,3.355-2.326,3.346-4.373l-0.051-10.297l-2.204,0.012
			l0.024-0.461c0.713-13.965,11.069-33.405,11.51-34.226c3.131-4.747,4.776-10.229,4.776-15.889c0-15.892-12.929-28.82-28.82-28.82
			c-15.892,0-28.82,12.929-28.82,28.82c0,5.658,1.644,11.141,4.755,15.854c0.1,0.143,10.876,20.262,11.538,34.391l0.021,0.454
			L53.875,392.477z M68.958,371.464c-0.182,0-0.294-0.003-0.328-0.005c-0.005,0-0.01,0-0.015,0
			c-0.078,0.004-1.029,0.032-2.553-0.119l0.08-0.868c1.797,0.154,3.195,0.154,4.991,0l0.081,0.868
			C70.154,371.445,69.372,371.464,68.958,371.464z"/>
	</g>
	<g>
		<rect x="60.331" y="391.6" fill="#78C2FF" width="16.443" height="0.873"/>
	</g>
	<g>
		<rect x="67.68" y="287.865" fill="#78C2FF" width="1.745" height="14.909"/>
	</g>
	<g>
		
			<rect x="91.665" y="293.136" transform="matrix(0.7071 0.7071 -0.7071 0.7071 239.6534 22.6072)" fill="#78C2FF" width="1.746" height="14.91"/>
	</g>
	<g>
		
			<rect x="37.112" y="299.718" transform="matrix(0.7071 0.7071 -0.7071 0.7071 225.6032 56.5273)" fill="#78C2FF" width="14.91" height="1.745"/>
	</g>
	<g>
		
			<rect x="49.533" y="367.767" transform="matrix(0.2284 0.9736 -0.9736 0.2284 403.467 227.3128)" fill="#6AAFE8" width="17.579" height="0.872"/>
	</g>
	<g>
		
			<rect x="78.346" y="359.414" transform="matrix(0.9733 0.2295 -0.2295 0.9733 86.596 -8.2528)" fill="#6AAFE8" width="0.872" height="17.578"/>
	</g>
	<g>
		<path fill="#78C2FF" d="M101.878,341.957h-0.873c0-17.895-14.559-32.452-32.453-32.452v-0.873
			C86.928,308.632,101.878,323.581,101.878,341.957z"/>
	</g>
	<g>
		<path fill="#78C2FF" d="M94.42,341.957h-0.873c0-13.782-11.213-24.995-24.996-24.995c-13.783,0-24.996,11.213-24.996,24.995
			h-0.872c0-14.264,11.604-25.867,25.868-25.867S94.42,327.693,94.42,341.957z"/>
	</g>
	<g>
		<polygon fill="#78C2FF" points="124.647,356.178 90.532,356.178 90.532,355.305 123.774,355.305 123.774,318.227 135.988,318.227 
			135.988,319.1 124.647,319.1 		"/>
	</g>
</g>
</g>
<g id="Man_right">
	<path fill="#EEA886" d="M400.981,314.099c0,0-0.566-2.148,0.037-3.08c0.604-0.933,0.96-2.432,1.047-2.907
		c0.117-0.635,1.209-2.552,0.403-2.598c-0.806-0.044-1.943,3.097-2.313,3.727c-0.367,0.629-1.371-2.127-1.984-2.435
		c-0.611-0.308-5.456,2.215-4.529,3.998c0.926,1.783,3.213,2.925,3.306,3.278c0.095,0.354,0.617,1.331,0.617,1.331L400.981,314.099z
		"/>
	<path fill="#EEA886" d="M398.497,307.158c0,0-3.234-5.224-3.774-5.354c-0.541-0.131-0.848,0.098-0.567,0.602
		c0.28,0.503,2.962,5.157,2.962,5.157s-4.988-5.408-5.394-5.614c-0.238-0.119-0.852,0.291-0.729,0.578
		c0.121,0.286,4.711,5.967,4.711,5.967s-4.668-5.039-5.074-5.104c-0.354-0.058-0.841,0.446-0.523,0.847
		c0.315,0.401,4.342,5.356,4.342,5.356s-3.664-3.426-4.068-3.277c-0.248,0.092-0.792,0.424,0.186,1.275
		c0.979,0.851,3.035,3.127,3.035,3.127L398.497,307.158z"/>
	<linearGradient id="SVGID_2_" gradientUnits="userSpaceOnUse" x1="339.1582" y1="295.668" x2="486.0684" y2="295.668">
		<stop  offset="0" style="stop-color:#343D4F"/>
		<stop  offset="0.4581" style="stop-color:#30394C"/>
		<stop  offset="0.9513" style="stop-color:#232D41"/>
		<stop  offset="1" style="stop-color:#212B40"/>
	</linearGradient>
	<path opacity="0.68" fill="url(#SVGID_2_)" d="M480.906,311.584H344.319c-2.851,0-5.161-2.312-5.161-5.162v-21.508
		c0-2.851,2.311-5.161,5.161-5.161h136.587c2.851,0,5.162,2.311,5.162,5.161v21.508
		C486.068,309.272,483.757,311.584,480.906,311.584z"/>
	<g>
		<g>
			<rect x="347.015" y="289.52" fill="#E0E0E0" width="23.788" height="2.435"/>
		</g>
		<g>
			<rect x="375.432" y="289.52" fill="#E0E0E0" width="16.887" height="2.435"/>
		</g>
		<g>
			<rect x="375.432" y="298.689" fill="#E0E0E0" width="15.769" height="2.436"/>
		</g>
		<g>
			<rect x="460.025" y="289.52" fill="#78C2FF" width="16.888" height="2.435"/>
		</g>
		<g>
			<rect x="396.865" y="289.52" fill="#1487E3" width="21.516" height="2.435"/>
		</g>
		<g>
			<rect x="434.294" y="289.52" fill="#FFC055" width="21.516" height="2.435"/>
		</g>
		<g>
			<rect x="422.359" y="289.52" fill="#E0E0E0" width="7.876" height="2.435"/>
		</g>
		<g>
			<rect x="347.015" y="298.689" fill="#78C2FF" width="12.32" height="2.436"/>
		</g>
		<g>
			<rect x="362.359" y="298.689" fill="#1487E3" width="3.979" height="2.436"/>
		</g>
		<g>
			<rect x="444.031" y="298.689" fill="#E0E0E0" width="32.882" height="2.436"/>
		</g>
		<g>
			<rect x="369.261" y="298.689" fill="#FFC455" width="4.06" height="2.436"/>
		</g>
		<g>
			<rect x="430.235" y="298.689" fill="#1487E3" width="10.758" height="2.436"/>
		</g>
		<g>
			<rect x="404.497" y="298.689" fill="#78C2FF" width="22.89" height="2.436"/>
		</g>
		<g>
			<rect x="393.374" y="298.689" fill="#E0E0E0" width="7.875" height="2.436"/>
		</g>
	</g>
	<path fill="#202338" d="M397.183,422.258c0,0-3.106,3.119-5.776,3.454c-2.671,0.336-5.77,1.34-6.133,3.353s7.911,4.15,11.17,2.576
		c4.863-2.349,6.276-1.415,7.017-2.855c0.741-1.44,0.604-6.412,0.717-6.889C404.317,421.307,397.183,422.258,397.183,422.258z"/>
	<path fill="#202338" d="M452.046,413.435c0,0-0.9,4.268-2.88,5.903c-1.979,1.638-3.959,4.068-3.218,5.995
		c0.742,1.927,7.8,1.699,10.324-3.396c1.595-3.221,3.447-3.778,3.305-5.4c-0.144-1.621-2.609-5.091-2.764-5.563
		C456.623,410.394,452.046,413.435,452.046,413.435z"/>
	<path fill="#1C4054" d="M418.169,352.352c0,0-10.703,22.168-13.119,27.789c-2.239,5.209-4.542,14.564-4.851,18.223
		c-0.388,4.602-4.794,23.317-5.066,24.662c-0.271,1.346,9.329,0.537,9.329,0.537s8.365-31.882,10.58-36.404
		c1.479-3.017,12.586-23.1,13.567-21.854c0.981,1.247,6.953,16.253,7.68,19.852c0.727,3.6,14.404,30.367,14.404,30.367
		s6.387-0.467,7.643-2.9c0,0-10.201-27.127-11.335-32.065c-0.576-2.512-2.69-18.341-5.354-30.477
		C440.277,343.84,418.169,352.352,418.169,352.352z"/>
	<path fill="#518AFA" d="M445.283,318.591c0,0-3.68,11.073-3.598,13.709C441.769,334.935,439.645,319.413,445.283,318.591z"/>
	<g>
		<g>
			<g>
				<g>
					<path fill="#518AFA" d="M419.152,322.684c0,0-0.455,1.529-1.321,3.369v0.001c-0.316,0.672-0.688,1.386-1.111,2.08
						c-0.073,0.122-0.149,0.243-0.227,0.364c-0.3,0.467-0.624,0.921-0.972,1.343c-1.095,1.329-2.419,2.343-3.953,2.456
						c-3.146,0.232-14.445-17.039-14.445-17.039l5.398-2.452c0,0,7.15,10.322,8.261,9.756c1.111-0.568,2.259-4.76,2.259-4.76
						c1.314-0.725,3.318,1.281,4.67,2.938c0.088,0.107,0.173,0.214,0.255,0.318C418.678,321.958,419.152,322.684,419.152,322.684z"
						/>
				</g>
			</g>
		</g>
	</g>
	<g>
		<g>
			<g>
				<g>
					<path fill="#518AFA" d="M442.302,351.854c-6.116,5.478-25.658,3.664-25.658,3.664c0.283-0.677,2.264-21.05,1.571-25.654
						c-0.693-4.603-0.302-8.514-0.914-8.691c-0.614-0.178-4.815-1.646-4.815-1.646s2.234-7.104,3.171-8.646
						c0.935-1.54,7.628-3.792,7.628-3.792s5.197-1.863,10.711-1.212c9.21,1.089,10.315,3.8,10.315,3.8l-2.139,13.681
						c0,0-0.002,0.052-0.006,0.147c-0.011,0.307-0.038,1.074-0.076,2.133c-0.155,4.397-0.484,13.814-0.53,16.059
						C441.486,345.302,442.302,351.854,442.302,351.854z"/>
				</g>
			</g>
		</g>
	</g>
	<g>
		<g>
			<g>
				<g>
					<path fill="#EEA987" d="M435.515,306.126c-0.378,0.695-0.779,1.298-1.188,1.826c-2.874,3.707-6.209,3.575-6.209,3.575
						c-2.04-0.179-3.124-1.497-3.692-2.684c-0.493-1.026-0.595-1.952-0.595-1.952l1.213-0.438c0.096-0.311,0.151-0.744,0.179-1.23
						c0.017-0.262,0.023-0.536,0.025-0.817c0-0.243-0.002-0.489-0.009-0.729c-0.002-0.097-0.005-0.194-0.008-0.288
						c-0.038-1.031-0.117-1.89-0.117-1.89s8.725-4.716,8.013-1.39c-0.326,1.521-0.273,2.714-0.057,3.593
						c0.258,1.05,0.753,1.653,1.129,1.835C435.028,305.936,435.515,306.126,435.515,306.126z"/>
				</g>
			</g>
		</g>
	</g>
	<path fill="#EEA886" d="M410.452,312.848c0,0-0.479-0.43-0.534-0.944c-0.095-0.89,0.794-2.032-0.227-2.84
		c-1.021-0.809-4.678,1.656-5.052,2.421c-0.374,0.763,0.629,2.255,2.981,3.683C409.973,316.596,410.452,312.848,410.452,312.848z"/>
	<path fill="#EEA886" d="M409.993,309.384c0,0-0.851-1.711-2.045-3.498c-1.047-1.566-2.52-3.228-2.946-2.942
		c-0.582,0.391,0.746,1.563,1.672,3.186c0.854,1.495,0.419,1.347,0.419,1.347s0.127,0.035-1.141-1.411
		c-1.363-1.553-3.03-3.202-3.416-2.857c-0.241,0.216-0.292,0.22,0.104,0.864c-0.313-0.321-0.451-0.281-0.608-0.165
		c-0.811,0.604,0.81,3.2,1.454,4.23c-0.5-0.789-0.957-1.313-1.213-0.64c-0.293,0.77,2.175,4.332,2.927,5.694
		C406.021,314.678,409.993,309.384,409.993,309.384z"/>
	<g>
		<path fill="#518AFA" d="M445.078,320.188c3.953-4.813-0.938-10.776-0.938-10.776c-2.893-2.465-9.222,7.877-10.021,8.889
			c-0.797,1.012-6.853,6.423-8.542,8.249c-0.862,0.933-4.486-3.043-6.147-4.628c-0.998-0.951-8.78-10.079-8.78-10.079
			s-5.356,3.87-4.907,3.543c0.45-0.327,15.861,19.854,18.722,20.005C424.464,335.39,435.532,331.811,445.078,320.188z"/>
	</g>
	<path fill="#3D66BA" d="M416.72,328.134c-0.073,0.122-0.149,0.243-0.227,0.364c-0.3,0.467-0.624,0.921-0.972,1.343
		c-0.744-0.889-3.554-7.235-3.598-7.334L416.72,328.134z"/>
	<path fill="#3D66BA" d="M440.735,324.877c0,0-4.955,4.444-7.646,6.087c-2.691,1.644-7.181,3.882-7.682,4.075
		C425.408,335.039,437.299,332.72,440.735,324.877z"/>
	<g>
		<path fill="#EEA886" d="M420.486,289.32c0,0-1.894,3.512-0.955,4.058c0.775,0.452-0.908,3.898-1.129,4.462
			c-0.221,0.563,1.405,0.972,1.75,1.334c0.346,0.363,1.369,4.823,2.708,4.957c1.339,0.135,7.372-1.964,9.015-3.672
			s2.99-9.423,1.894-12.677C432.673,284.528,423.83,283.186,420.486,289.32z"/>
	</g>
	<g>
		<path fill="#252E3B" d="M420.109,290.081c0,0-1.935-3.793,1.578-6.606s9.989,2.125,10.72,2.313
			c0.729,0.188,4.871,0.474,2.78,7.745c-1.796,6.245-2.047,6.508-2.047,6.508s-1.34-3.618-2.1-4.17
			c-1.186-0.86-3.787-0.653-3.787-0.653s1.24-3.29-0.697-3.756C424.62,290.995,422.068,289.354,420.109,290.081z"/>
	</g>
	<g>
		<path fill="#EEA886" d="M429.317,293.333c0.171-0.452,0.723-2.392,2.388-1.252c1.664,1.139-1.037,4.794-1.328,4.841
			C430.087,296.969,427.88,297.129,429.317,293.333z"/>
	</g>
	<path fill="#A77860" d="M431.699,300.628c0,0-1.419,2.8-6.477,4.596c0.017-0.262,0.023-0.536,0.025-0.817
		c0-0.243-0.002-0.489-0.009-0.729C425.239,303.677,429.141,302.609,431.699,300.628z"/>
</g>
<g id="Man_top">
	<g>
		<path fill="#999999" d="M246.935,232.509c0,0,0.385,3.146,0.896,4.532c0.51,1.388,3.285,4.59,2.112,7.667
			c-1.271,3.336-6.818,0.12-9.081-0.897c-2.264-1.018-1.748-2.864-1.989-5.126c-0.241-2.263-1.346-2.324-0.938-3.914
			c0.407-1.59,2.882-4.636,2.882-4.636L246.935,232.509z"/>
	</g>
	<g>
		<g>
			<path fill="#EEA886" d="M241.886,228.49c0,0-1.42,1.987-1.381,2.041c0.039,0.055,6.084,3.734,6.505,2.541
				c0.334-0.948,0.474-2.322,0.474-2.322L241.886,228.49z"/>
		</g>
	</g>
	<g>
		<path fill="#999999" d="M221.396,234.732c0,0-1.845,1.617-3.5,4.101c-1.656,2.483-6.052,2.615-6.239,6.007
			c-0.188,3.391,5.976,3.494,9.212,2.391c3.237-1.104,3.726-4.415,5.684-5.243c1.957-0.828,2.973-1.498,2.822-3.115
			c-0.151-1.616-1.233-4.239-1.233-4.239s-1.217,0.388-1.931,0.467C225.495,235.179,223.09,235.206,221.396,234.732z"/>
	</g>
	<g>
		<path fill="#1487E3" d="M243.581,142.871c0,0-1.241,7.376-2.241,12.249c0,0,0,0,0,0.001c-0.404,1.976-0.771,3.54-0.998,4.032
			c-0.286,0.619-2.614,3.12-5.464,6.054c-4.999,5.146-11.606,11.629-11.606,11.629l-2.582-4.902c0,0,5.868-6.879,9.846-11.469
			c1.842-2.124,3.277-3.758,3.541-3.993c0.831-0.743,1.796-8.074,3.152-14.114c1.357-6.041,4.076-9.378,4.076-9.378L243.581,142.871
			z"/>
	</g>
	<g>
		<path fill="#EEA886" d="M234.878,165.207c-4.999,5.146-11.606,11.629-11.606,11.629l-2.582-4.902c0,0,5.868-6.879,9.846-11.469
			C231.755,161.063,233.993,162.489,234.878,165.207z"/>
	</g>
	<g>
		<path fill="#EEA886" d="M221.686,232.475l-0.289,2.258c0,0,3.209,1.135,6.745-0.1l0.072-2.01L221.686,232.475z"/>
	</g>
	<g>
		<path fill="#1487E3" d="M267.243,175.838c0.185,0.657-33.991,0-33.991,0s9.453-6.88,10.066-8.719
			c0.613-1.838-2.408-12.868-2.801-16.457c-0.315-2.871-1.105-15.721,0.787-17.683c1.979-2.052,9.104-4.202,9.104-4.202
			l10.387,0.386c0,0,1.715,0.359,2.939,0.928c1.227,0.568,8.234,3.065,9.372,6.566c1.14,3.502-6.992,14.76-6.992,14.76
			s-0.017,0.507-0.041,1.335l0,0c-0.03,1.106-0.077,2.786-0.119,4.609c-0.056,2.36-0.103,4.959-0.103,6.857
			C265.853,168.683,267.06,175.182,267.243,175.838z"/>
	</g>
	<g>
		<path fill="#E8E8E8" d="M267.243,175.839c0,0,4.649,6.828,4.715,11.488c0.065,4.661-8.249,20.272-9.508,22.507
			c-3.782,6.714-14.157,21.196-14.157,21.196s-1.788-0.046-7.369-2.211c0,0,6.902-19.131,7.777-21.117
			c3.709-8.423,5.78-14.396,4.533-15.841s-4.648-2.893-5.633-3.746s-18.14,3.241-19.938,3.708
			c-4.654,1.206-2.533,9.306-1.503,12.937c1.722,6.074,3.229,28.012,3.229,28.012s-3.315,1.413-8.869,0.219
			c0,0-10.904-39.61-11.255-43.55c-0.35-3.938-0.521-10.434,26.351-15.371L267.243,175.839z"/>
	</g>
	<g>
		<path fill="#EEA886" d="M253.259,106.208c0,0-9.017-2.033-6.957,9.314s4.229,12.24,9.668,9.892
			c5.44-2.349,4.953-9.619,5.228-13.185C261.471,108.664,256.136,106.332,253.259,106.208z"/>
	</g>
	<g>
		<path fill="#EEA886" d="M250.873,131.69c0,0,3.993,4.234,10.305,0.387c0,0-1.411-9.176-0.668-13.645
			c0.742-4.469-8.235,6.924-8.235,6.924c0.119,0.063,0.196,0.489,0.215,1.096c0.016,0.515-0.013,1.158-0.095,1.818
			C252.209,129.756,251.747,131.325,250.873,131.69z"/>
	</g>
	<g>
		<path fill="#3A3F47" d="M260.757,118.053c0,0-0.232-3.575-1.538-3.688c-1.307-0.111-1.507,1.328-1.507,1.328l-1.318,0.25
			c0,0,0.416-3.135-0.888-3.683c-1.304-0.546-8.448,1.727-9.495,0.807s-0.555-7.277,1.338-8.146
			c1.894-0.87,7.121-2.819,10.952-0.227c0,0,2.985-0.341,3.429,2.069C262.173,109.173,261.569,116.261,260.757,118.053z"/>
	</g>
	<g>
		<path fill="#A77860" d="M252.395,128.271c6.512-2.007,7.002-5.928,7.009-5.989c-2.144,3.684-6.914,4.171-6.914,4.171
			C252.505,126.967,252.477,127.61,252.395,128.271z"/>
	</g>
	<g>
		<path fill="#EEA886" d="M263.844,130.141c0,0-4.769,9.491-12.472,8.879c-7.703-0.613-1.313-10.153-0.963-10.242
			C250.794,128.682,258.309,126.808,263.844,130.141z"/>
	</g>
	<g>
		<path fill="#1487E3" d="M229.342,175.357c0,0,23.603,2.911,37.901,0.481l-27.322-3.414
			C239.921,172.425,239.76,173.122,229.342,175.357z"/>
	</g>
	<g>
		<path fill="#EEA886" d="M246.994,171.35l-1.758,0.892c0,0,0.4,2.793,1.363,3.639l1.974-0.504
			C248.573,175.376,248.162,172.313,246.994,171.35z"/>
	</g>
	<g>
		<path fill="#1487E3" d="M274.307,165.631c-0.352,0.407-4.992,2.273-10.233,4.293h-0.001c-7.161,2.759-15.238,5.367-15.238,5.367
			l-1.84-3.941c0,0,8.46-4.597,14.176-7.819c2.7-1.522,4.787-2.739,5.083-3.021c0.92-0.875,1.157-2.279,0.481-4.727
			c-0.675-2.448-2.232-13.699-2.407-15.013s0.438-4.814,3.721-4.99c3.282-0.175,4.953,0.752,4.953,0.752s0.823,0.343,1.437,8.309
			S275.139,164.668,274.307,165.631z"/>
	</g>
	<g>
		<path fill="#0C5087" d="M266.074,152.752L266.074,152.752c-0.03,1.106-0.077,2.786-0.119,4.609
			c-3.204-7.854-1.354-14.121-1.322-14.227C264.286,145.266,266.05,152.646,266.074,152.752z"/>
	</g>
	<g>
		<path fill="#0C5087" d="M241.34,155.12C241.34,155.12,241.34,155.12,241.34,155.12c-0.404,1.977-0.771,3.541-0.998,4.033
			c-1.094-5.297-0.109-12.077-0.109-12.077C240.381,150.316,241.34,155.12,241.34,155.12z"/>
	</g>
	<g>
		<path fill="#EEA886" d="M264.073,169.924L264.073,169.924c-7.162,2.759-15.5,5.452-15.5,5.452l-1.579-4.026
			c0,0,8.46-4.597,14.176-7.819C261.17,163.53,263.249,164.543,264.073,169.924z"/>
	</g>
	<g>
		<polygon fill="#444C94" points="246.485,175.61 212.938,175.116 229.876,183.717 		"/>
	</g>
	<g>
		<polygon fill="#303669" points="229.876,183.717 246.485,177.283 246.485,175.61 228.563,182.076 		"/>
	</g>
	<g>
		<g>
			<path fill="#EEA886" d="M245.617,172.302c0,0-2.097-0.326-3.544-0.664c-1.121-0.26-3.908,0.1-4.618,0.819
				c-0.71,0.718-2.968,5.73-3.395,6.036c-0.427,0.307,0.22,1.014,0.969,0.658c0,0,0.688,2.192,2.388,1.372
				c1.698-0.82,2.852-2.613,3.742-2.93c0.89-0.314,6.071-1.908,6.071-1.908S246.951,171.768,245.617,172.302z"/>
		</g>
	</g>
	<g>
		<g>
			<path fill="#EEA886" d="M237.967,172.128c0,0-1.347,0.649-1.698,0.939c-0.351,0.291-1.775,1.356-2.12,1.606
				c-0.346,0.252,0.521,0.965,3.066-0.138C239.762,173.433,237.967,172.128,237.967,172.128z"/>
		</g>
	</g>
	<g>
		<polygon fill="#303669" points="229.876,183.717 219.897,156.472 187.729,156.997 197.239,182.104 		"/>
	</g>
	<g>
		
			<ellipse transform="matrix(0.8943 -0.4474 0.4474 0.8943 -54.0555 110.6304)" fill="#518AFA" cx="207.166" cy="169.745" rx="2.728" ry="3.973"/>
	</g>
	<g>
		<path fill="#EEA886" d="M257.74,114.18c0.118-1.002,2.097-1.369,2.257,0.133c0.159,1.501-0.899,4.136-1.65,3.876
			C257.595,117.929,257.576,115.56,257.74,114.18z"/>
	</g>
</g>
<!-- <g id="Bulle_bleue">
	<g>
		<polygon fill="#78C2FF" points="196.758,83.467 233.767,83.467 233.767,110.292 233.767,115.942 228.116,110.292 196.758,110.292 
					"/>
	</g>
	<path fill="#FFFFFF" d="M224.384,92.996H206.14c-0.357,0-0.647-0.29-0.647-0.648v-0.732c0-0.358,0.29-0.648,0.647-0.648h18.244
		c0.358,0,0.648,0.29,0.648,0.648v0.732C225.032,92.706,224.742,92.996,224.384,92.996z"/>
	<path fill="#FFFFFF" d="M222.495,97H206.14c-0.357,0-0.647-0.29-0.647-0.647v-0.733c0-0.357,0.29-0.647,0.647-0.647h16.355
		c0.357,0,0.647,0.29,0.647,0.647v0.733C223.143,96.71,222.853,97,222.495,97z"/>
	<path fill="#FFFFFF" d="M218.404,101.111H206.14c-0.357,0-0.647-0.29-0.647-0.649V99.73c0-0.358,0.29-0.648,0.647-0.648h12.265
		c0.358,0,0.648,0.29,0.648,0.648v0.731C219.053,100.821,218.763,101.111,218.404,101.111z"/>
</g> -->
<g id="Woman">
	<path fill="#EEA886" d="M175.702,362.854c0,0,1.78,0.792,2.625,0.433c0.844-0.36,2.15-0.43,2.563-0.431
		c0.55-0.001,2.274-0.616,2.244,0.059c-0.03,0.673-2.799,1.144-3.365,1.353c-0.567,0.211,1.695,1.455,1.905,2.009
		s-2.343,4.185-3.784,3.15c-1.44-1.036-2.22-3.101-2.513-3.231s-1.082-0.712-1.082-0.712L175.702,362.854z"/>
	<path fill="#EEA886" d="M181.4,365.955c0,0,4.177,3.463,4.242,3.93c0.065,0.468-0.155,0.687-0.561,0.38
		c-0.405-0.308-4.142-3.228-4.142-3.228s4.186,4.94,4.325,5.308c0.083,0.216-0.317,0.662-0.552,0.518
		c-0.233-0.144-4.683-4.796-4.683-4.796s3.896,4.621,3.918,4.966c0.019,0.304-0.45,0.63-0.765,0.307
		c-0.315-0.321-4.195-4.399-4.195-4.399s2.608,3.549,2.447,3.861c-0.098,0.191-0.427,0.592-1.069-0.346
		c-0.642-0.938-2.406-2.982-2.406-2.982L181.4,365.955z"/>
	<path fill="#3D6091" d="M146.923,437.957c0,0-0.162,5.674,0.647,6.016c0.811,0.341,3.877-1.631,5.229-3.583
		c1.353-1.951-1.694-6.491-2.195-8.997c-0.209-1.05-2.591-2.936-3.753-2.396c-1.162,0.541-2.011,1.927-2.011,1.927
		S147.798,432.949,146.923,437.957z"/>
	<g>
		<path fill="#DE9673" d="M144.841,430.924c0,0,1.007,1.936,1.523,3.438c0.518,1.502,0.614,5.661,0.94,5.95
			c0.326,0.29,2.896-1.007,3.238-2.563s-0.699-4.665-1.691-6.3c-0.991-1.634-2-2.453-2-2.453S145.099,429.338,144.841,430.924z"/>
	</g>
	<polygon fill="#3D6091" points="150.604,431.393 153.365,435.422 152.844,435.781 150.709,432.666 	"/>
	<path fill="#DE9673" d="M134.924,394.465c0,0,1.574,8.354,1.574,10.35c0,1.997,0.545,5.267,1.815,7.688
		c1.271,2.421,6.849,18.96,7.333,20.888c0.484,1.926,0.898,3.745,0.898,3.745s2.784-1.271,2.784-3.086
		c0-1.816-2.421-16.826-2.845-19.791c-0.424-2.967-3.935-18.159-3.935-18.159L134.924,394.465z"/>
	<path fill="#EEA886" d="M143.821,393.92c0,0-0.544,6.961-0.484,8.776c0.061,1.816,0.908,5.932,0.908,7.021
		c0,1.091,0.001,23.663-0.902,26.387s2.536,0.851,2.536,0.851s5.992-14.849,5.992-21.042c0-6.195-0.727-9.281-0.303-13.216
		s3.087-9.139,3.087-9.139L143.821,393.92z"/>
	<path fill="#EEA886" d="M142.838,302.756c0,0-5.569,5.608-3.673,12.831c1.896,7.224,4.944,7.264,8.303,4.156
		c3.359-3.106,5.336-6.375,5.78-10.007S147.922,297.752,142.838,302.756z"/>
	<path fill="#EEA886" d="M141.748,326.846c0,0,0.825-1.889,1.404-4.017c0.102-0.375,0.195-0.758,0.276-1.138
		c0.284-1.339,0.401-2.657,0.094-3.562c-0.887-2.624,5.569-0.808,5.569-0.808s-1.251,6.94,0,9.281S141.748,326.846,141.748,326.846z
		"/>
	<path fill="#316EBF" d="M152.885,360.418c0,0,4.01,5.902,4.857,11.169c0.847,5.266-0.747,13.103-1.404,15.977
		c-0.578,2.52-1.44,10.352-1.502,11.198c0,0-12.588,3.27-20.82,0.667c0,0-1.275-12.932-1.76-17.713
		c-0.483-4.781,2.874-20.934,2.874-20.934L152.885,360.418z"/>
	<path fill="#EDDAD3" d="M176.827,363.162l-2.259,2.554c0,0-13.498-10.955-14.104-12.408c-0.604-1.452-5.178-9.629-5.358-10.477
		c0,0-0.876,2.264-1.604,4.469c-0.303,0.917-0.695,2.585-0.873,3.313c-0.604,2.48-0.673,6.456,0.256,9.805
		c0,0-10.936,4.076-17.755,0.364c0,0,0.727-5.933-0.363-9.766s-6.778-17.189-6.778-17.189s3.025-5.609,6.173-6.698
		c3.147-1.091,6.739-1.904,6.739-1.904h7.46c0,0,4.911,1.278,6.011,1.626c1.964,0.62,3.794,3.113,4.157,5.353
		s5.508,17.534,6.113,17.958C165.247,350.584,176.827,363.162,176.827,363.162z"/>
	<path fill="#EEA886" d="M132.614,355.886c0,0,4.843,0.188,5.596,0c0.754-0.188,5.778-2.367,6.08-4.52s-11.676,1.93-11.676,1.93
		V355.886z"/>
	<path fill="#5D89C4" d="M140.501,442.97c0,0-3.741,4.364-3.321,5.149c0.421,0.785,4.093,1.185,6.401,0.51
		c2.308-0.675,2.8-6.192,4.003-8.484c0.503-0.96-0.172-3.963-1.432-4.278c-1.26-0.313-2.81,0.237-2.81,0.237
		S144.381,439.582,140.501,442.97z"/>
	<g>
		<path fill="#EEA886" d="M143.343,436.104c0,0-0.441,2.166-0.991,3.678c-0.55,1.514-3.123,4.852-3.05,5.287
			c0.072,0.435,2.922,1.05,4.183,0.044c1.262-1.007,2.422-4.12,2.681-6.039c0.262-1.919,0.123-3.158,0.123-3.158
			S144.557,435.02,143.343,436.104z"/>
	</g>
	<polygon fill="#5D89C4" points="147.584,440.145 147.19,445.077 146.551,445.026 146.854,441.213 	"/>
	<polygon fill="#4C5285" points="147.64,349.16 127.988,346.86 136.865,354.083 	"/>
	<path fill="#EDDAD3" d="M133.206,353.114c0,0-0.201,2.502,0,3.027c0,0-12.119-1.211-13.249-2.905
		c-1.13-1.695-1.089-3.754-1.089-3.754L133.206,353.114z"/>
	<path fill="#E8734D" d="M144.653,306.79c0,0,2.663,4.844,4.317,6.578c1.654,1.735,1.461,3.113,1.461,3.113
		s6.448-7.956,1.849-12.758c-4.601-4.802-10.532-2.864-12.268,1.332s-1.1,9.322-1.1,9.322S138.964,309.453,144.653,306.79z"/>
	<path fill="#E8734D" d="M146.41,301.721c0,0-0.644-3.545,4.915-4.954c5.56-1.41,8.056,4.994,7.372,8.901
		c-0.686,3.907-5.438,13.816-2.86,15.105s3.585-1.49,3.585-1.49s-0.805,4.875-4.391,3.746c-3.585-1.128-3.102-9.048-2.562-12.205
		C153.011,307.667,146.41,301.721,146.41,301.721z"/>
	<path fill="#EDDAD3" d="M140.9,325.225c0,0,0.511-1.485,0.457-1.835c0,0,7.021-0.437,8.823-0.168c0,0,0.143,1.987,0.125,2.437
		C150.289,326.105,142.165,327.464,140.9,325.225z"/>
	<polygon fill="#323657" points="136.865,354.083 147.64,350.412 147.64,349.16 136.502,352.732 	"/>
	<polygon fill="#323657" points="136.865,354.083 131.136,332.777 109.345,330.478 115.317,350.089 	"/>
	<path fill="#A77860" d="M148.201,319.041c-0.021,0.051-1.428,3.285-5.049,3.788c0.102-0.375,0.195-0.758,0.276-1.138
		C143.429,321.691,145.414,322.092,148.201,319.041z"/>
	<path fill="#CFBEB8" d="M155.106,342.831c0,0-0.876,2.264-1.604,4.469c-0.74-6.191,0.258-11.119,0.258-11.119
		C153.84,339.489,155.106,342.831,155.106,342.831z"/>
	<path fill="#EDDAD3" d="M147.276,300.977c0,0,3.946,0.759,5.913,3.973c0,0-0.399-2.91-2.362-3.75
		C148.863,300.361,147.276,300.977,147.276,300.977z"/>
</g>
</svg>

