<svg id="Groupe_2" data-name="Groupe 2" xmlns="http://www.w3.org/2000/svg" width="500" height="500" viewBox="0 0 500 500">
  <g id="Graph" transform="translate(-56.096 -94.037)">
    <g id="Groupe_1" data-name="Groupe 1" transform="translate(56.096 94.037)">
      <path id="Tracé_1" data-name="Tracé 1" d="M872.185,355a33.44,33.44,0,0,0-34.192-31.785l-.79.027c-.275.011-.556.029-.834.047l-29.988,1.4L782.557,325.8a33.4,33.4,0,0,1-33.721-24.2c-.139-.481-.259-.963-.38-1.454a129.935,129.935,0,0,0-131.728-96.35c-71.69,3.353-127.07,64.046-123.711,135.563s64.2,126.763,135.886,123.4A129.769,129.769,0,0,0,729.615,407.11c.593-.843,1.16-1.664,1.792-2.508a26.559,26.559,0,0,1,18.57-10.536h.04c.509-.056,1.021-.094,1.541-.12.491-.018.973-.038,1.456-.018a.05.05,0,0,1,.055,0A26.883,26.883,0,0,1,779.6,419.6a26.576,26.576,0,0,1-3.979,15.379.363.363,0,0,1-.026.037c-.076.121-.15.231-.234.351-.231.353-.464.695-.705,1.047-.084.13-.176.25-.27.379a.323.323,0,0,0-.027.047A183.707,183.707,0,0,1,631.429,516.4C530.207,521.135,443.994,442.84,439.25,341.872S512.981,154.886,614.2,150.147a184.065,184.065,0,0,1,167.443,90.979c.029.046.055.092.083.137a33.543,33.543,0,0,0,29.542,16.455h.121l1.791-.094a33.485,33.485,0,0,0,30.982-34.785,32.721,32.721,0,0,0-3.786-13.85.451.451,0,0,1-.029-.055c-.435-.759-.874-1.51-1.32-2.261A251.072,251.072,0,0,0,437.513,164.98a250.322,250.322,0,1,0,429.8,223.6,250.844,250.844,0,0,0,4.568-27.2c0-.037.011-.084.011-.12q.138-1.193.249-2.388a.6.6,0,0,0,.011-.138A35.675,35.675,0,0,0,872.185,355ZM625.942,399.871a66.664,66.664,0,1,1,63.624-69.721v.009A66.807,66.807,0,0,1,625.942,399.871Z" transform="translate(-372.217 -83.276)" fill="#f1ad1e"/>
    </g>
  </g>
</svg>
