<svg xmlns="http://www.w3.org/2000/svg" width="2000" height="2000" viewBox="0 0 549.108 265.684">
  <g id="Groupe_1" data-name="Groupe 1" transform="translate(-216.922 -161.135)">
    <path id="graph" data-name="Graph" d="M-461.737-94.985q-11.932-11.3-30.3-11.932-19.939-.471-34.226,15.229-14.6,16.171-13.188,37.209,1.727,21.823,16.328,35.011a45.2,45.2,0,0,0,32.5,12.246q10.833-.157,17.976-3.218a40.668,40.668,0,0,0,13.581-9.97q4.71-4.867,8.4-13.973a66.44,66.44,0,0,0,4.632-17.584h-62.8a6.222,6.222,0,0,1-4.474-1.727,6.368,6.368,0,0,1-1.963-4.4,6.342,6.342,0,0,1,1.806-4.553,5.948,5.948,0,0,1,4.474-1.884h66.411a21.265,21.265,0,0,1,2.2-.157h.785a6.028,6.028,0,0,1,4.318,1.727,6.2,6.2,0,0,1,1.963,4.239q.628,11.3-4.318,25.277t-12.168,21.666A54.084,54.084,0,0,1-467.625,1.1q-9.5,4.082-22.687,4.239-24.021.314-41.291-15.543-18.369-16.642-20.253-43.332a58.523,58.523,0,0,1,3.219-24.885,64.244,64.244,0,0,1,12.953-21.744,59.758,59.758,0,0,1,20.331-14.6,53.718,53.718,0,0,1,23.786-4.553q22.922.628,38.465,15.229a5.954,5.954,0,0,1,1.962,4.4,6.211,6.211,0,0,1-1.648,4.553,5.7,5.7,0,0,1-4.4,1.884A6.5,6.5,0,0,1-461.737-94.985Zm88.391,31.243a53.74,53.74,0,0,0,18.369-1.1q6.437-1.884,9.577-5.495,5.181-5.809,3.925-17.27a22.8,22.8,0,0,0-3.14-9.812,16.382,16.382,0,0,0-7.693-5.73q-13.031-5.338-45.687-3.925l5.181,9.106Zm-35.168-55.264q43.646-2.983,61.073,4.4,9.263,3.768,13.659,10.833a34.116,34.116,0,0,1,4.71,14.758,40.751,40.751,0,0,1-.314,13.345,27.454,27.454,0,0,1-6.594,13.659q-9.734,10.99-30.144,10.99L-348.54-20.1q4.239,7.536,7.379,12.874,1.256,2.2,2.041,3.611a5.922,5.922,0,0,1,.628,1.256,6.316,6.316,0,0,1,.628,4.789,5.7,5.7,0,0,1-2.983,3.847,5.91,5.91,0,0,1-4.71.549,6.052,6.052,0,0,1-3.768-2.9q-.157-.314-.785-1.256-.785-1.57-2.041-3.611-2.983-5.338-7.222-12.874L-381.51-52.752l-20.567-35.953q.157,11.618.157,32.185V-.628a6.076,6.076,0,0,1-1.806,4.475A6.076,6.076,0,0,1-408.2,5.652a6.025,6.025,0,0,1-4.4-1.884,6.025,6.025,0,0,1-1.884-4.4V-56.52q0-21.038-.157-38.465v-17.427a6.114,6.114,0,0,1,2.2-4.867A6.383,6.383,0,0,1-408.514-119.006Zm141.771,23.55-.785,2.2-14.758,38.936-.785,1.884a.643.643,0,0,1,.393.236,2.1,2.1,0,0,0,.549.393q2.983,2.355,7.379,5.495,10.2,7.693,22.451,16.642l15.229,11.461-13.816-36.267L-265.8-93.258q-.157-.314-.471-1.1T-266.743-95.456ZM-315.57-2.2a4.327,4.327,0,0,0,.471-1.256q.628-1.413,1.413-3.611l4.867-12.874,14.758-38.779L-279.3-97.654q2.826-7.536,4.867-12.874.785-2.2,1.256-3.611a3.79,3.79,0,0,0,.471-1.256,5.825,5.825,0,0,1,5.888-3.925,5.825,5.825,0,0,1,5.888,3.925,4.329,4.329,0,0,1,.471,1.256q.628,1.413,1.413,3.611,2.041,5.338,4.867,12.717l15.072,38.779L-224.2-20.253l4.867,12.874q.785,2.041,1.413,3.454a4.328,4.328,0,0,0,.471,1.256q1.727,4.553-2.041,7.379a5.942,5.942,0,0,1-7.693,0q0-.157-.628-.471-.785-.628-2.041-1.57-3.14-2.355-7.536-5.5l-22.451-16.642L-282.286-36.11q-2.512-1.884-5.338-4.082l-9.42,24.806q-2.826,7.536-4.867,12.717-.785,2.2-1.413,3.611A4.327,4.327,0,0,1-303.8,2.2a6.238,6.238,0,0,1-3.3,3.611,5.7,5.7,0,0,1-4.71.157,6.238,6.238,0,0,1-3.611-3.3A6.053,6.053,0,0,1-315.57-2.2ZM-186.2-61.858h2.669q15.386,0,24.335-.471,10.676-.628,17.113-2.826,6.123-2.355,8.949-6.437,2.983-4.71,2.826-13.659,0-8.321-3.3-12.874-2.826-3.925-9.106-5.966-6.594-1.884-17.9-2.355-8.321-.157-25.591.157v44.431Zm-4.4-56.991h3.611q18.055-.314,26.847-.157,12.874.471,21.2,2.983,20.724,6.28,21.195,30.615.471,24.649-20.1,32.028-7.693,2.669-20.567,3.611-9.734.471-25.12.471H-186.2V-1.413a6.076,6.076,0,0,1-1.805,4.475,6.076,6.076,0,0,1-4.475,1.806,6.076,6.076,0,0,1-4.475-1.806,6.076,6.076,0,0,1-1.805-4.475V-113.2a6.2,6.2,0,0,1,1.963-4.239,6.028,6.028,0,0,1,4.317-1.727A8.589,8.589,0,0,1-190.6-118.849ZM-23.393.157V-17.584q0-17.427-.157-33.441H-55.421q-12.246,0-22.451.157h-9.106q.157,15.857.157,33.284V0a6.342,6.342,0,0,1-1.806,4.553A5.948,5.948,0,0,1-93.1,6.437a6.076,6.076,0,0,1-4.474-1.806A6.076,6.076,0,0,1-99.381.157V-17.584q0-17.584-.157-38.779v-56.52a5.948,5.948,0,0,1,1.884-4.475,6.154,6.154,0,0,1,4.4-1.805,6.077,6.077,0,0,1,4.475,1.805,5.892,5.892,0,0,1,1.805,4.318v49.612h9.106q10.205-.157,22.451-.157H-23.55v-49.3a5.948,5.948,0,0,1,1.884-4.475,6.154,6.154,0,0,1,4.4-1.805,6.077,6.077,0,0,1,4.474,1.805,5.892,5.892,0,0,1,1.806,4.318v56.52q.157,21.2.157,38.936V0a6.341,6.341,0,0,1-1.806,4.553,5.948,5.948,0,0,1-4.474,1.884,6.076,6.076,0,0,1-4.475-1.806A6.076,6.076,0,0,1-23.393.157Z" transform="translate(769 281)" fill="#FFFFFF"/>
    <path id="and" data-name="and" d="M-70.806-22.826l-.681,1.907L-84.293,12.866l-.681,1.635a.558.558,0,0,1,.341.2,1.819,1.819,0,0,0,.477.341q2.588,2.043,6.4,4.768,8.855,6.675,19.481,14.44L-45.059,44.2-57.047,12.73-69.989-20.918q-.136-.272-.409-.954T-70.806-22.826Zm-42.367,80.92a3.755,3.755,0,0,0,.409-1.09q.545-1.226,1.226-3.133l4.223-11.171L-94.51,9.052-81.7-24.733q2.452-6.539,4.223-11.171.681-1.907,1.09-3.133a3.289,3.289,0,0,0,.409-1.09,5.054,5.054,0,0,1,5.109-3.406,5.054,5.054,0,0,1,5.109,3.406,3.756,3.756,0,0,1,.409,1.09q.545,1.226,1.226,3.133,1.771,4.632,4.223,11.035L-46.83,8.779l12.942,33.648L-29.665,53.6q.681,1.771,1.226,3a3.755,3.755,0,0,0,.409,1.09,5.041,5.041,0,0,1-1.771,6.4,5.155,5.155,0,0,1-6.675,0q0-.136-.545-.409-.681-.545-1.771-1.362-2.725-2.043-6.539-4.768l-19.481-14.44-19.481-14.44q-2.18-1.635-4.632-3.542L-97.1,46.651q-2.452,6.539-4.223,11.035-.681,1.907-1.226,3.133a3.756,3.756,0,0,1-.409,1.09,5.413,5.413,0,0,1-2.861,3.133,4.944,4.944,0,0,1-4.087.136,5.413,5.413,0,0,1-3.133-2.861A5.252,5.252,0,0,1-113.173,58.094ZM62.7-38.492v2.861q.136,3.133.136,7.629,0,10.353.136,22.886V17.907q.136,4.5.136,7.629V28.4a7.512,7.512,0,0,1-.272,1.5q0,4.632.136,10.49V58.639a5.45,5.45,0,0,1-10.9,0V40.521q-.136-6.811-.136-12.533V24.582a2.3,2.3,0,0,1-.954-.954q-3-2.861-7.22-6.811-9.945-9.536-21.8-20.843L.169-24.733a2.924,2.924,0,0,0-.681-.545v2.18q.136,15.258.136,33.512Q-.24,28.669-.24,43.926-.1,50.465-.1,54.961v4.223A5.34,5.34,0,0,1-1.67,63a5.161,5.161,0,0,1-3.883,1.635A5.161,5.161,0,0,1-9.435,63,5.34,5.34,0,0,1-11,59.184V54.961q0-4.5-.136-11.035,0-15.258-.136-33.512,0-18.255-.136-33.512V-37.266a4.935,4.935,0,0,1,.272-2.861q1.09-3.678,5.177-3.678A5.179,5.179,0,0,1-1.33-41.217L.441-39.446q3,2.725,7.22,6.811,9.808,9.4,21.8,20.707l21.8,20.843.817.817V-4.98Q51.936-17.513,51.936-28q0-4.5-.136-7.629v-2.861a5.161,5.161,0,0,1,1.635-3.883,5.34,5.34,0,0,1,3.814-1.567,5.34,5.34,0,0,1,3.814,1.567A5.161,5.161,0,0,1,62.7-38.492ZM90.761,53.6q16.62-1.09,29.493-14.713t12.6-30.515Q132.447-9.2,121.685-20.374q-11.307-11.307-31.2-12.942v9.808q.136,15.394.136,33.648.136,18.391.136,33.648Zm-10.9,5.449V43.79q0-15.258-.136-33.648,0-18.255-.136-33.512V-38.628a5.269,5.269,0,0,1,3-4.9,4.617,4.617,0,0,1,3.133-.954Q114.056-43.8,129.45-28q13.9,14.3,14.3,36.1a51.892,51.892,0,0,1-8.037,28.54A59.672,59.672,0,0,1,113.647,57.89,49.76,49.76,0,0,1,85.175,64.5a5.009,5.009,0,0,1-3.746-1.635A5.34,5.34,0,0,1,79.862,59.048Z" transform="translate(343.782 352.971)" fill="#f2ad0d" opacity="0.3"/>
    <path id="co" data-name="co" d="M-162.975-82.521l-.954-1.908-.795-1.749q-.159-.318-.4-.954a2.611,2.611,0,0,0-.4-.795,33.229,33.229,0,0,0-7.791-9.54q-9.381-8.586-30.051-9.381a41.635,41.635,0,0,0-18.6,3.737,48.51,48.51,0,0,0-16.059,11.686q-14.946,16.377-13.2,38,1.59,21.942,16.377,35.139Q-221.169-6.042-201.93-6.837q18.6-.954,30.21-9.858,7.155-5.565,9.858-11.766a6.027,6.027,0,0,1,3.419-3.419,5.745,5.745,0,0,1,4.849.08,6.027,6.027,0,0,1,3.419,3.418,5.745,5.745,0,0,1-.079,4.85q-3.816,9.222-13.674,17.013Q-178.557,4.77-201.294,5.724A56.854,56.854,0,0,1-243.27-8.745Q-262.032-25.44-263.94-52.47q-1.908-27.348,16.536-47.541a59.846,59.846,0,0,1,20.432-14.867,53.748,53.748,0,0,1,24.089-4.691q25.122.8,38.16,12.72a46.249,46.249,0,0,1,10.494,13.2q.636,1.272.954,2.067l.8,1.59a16.545,16.545,0,0,1,.8,1.749,6.424,6.424,0,0,1,.318,4.85,6.431,6.431,0,0,1-3.021,3.736,6.611,6.611,0,0,1-4.929.318A5.758,5.758,0,0,1-162.975-82.521ZM-74.571-121a2.215,2.215,0,0,1,.954-.159q26.553.636,44.679,18.683t17.967,43.8q-.318,25.6-18.6,44.2A61.111,61.111,0,0,1-50.085-.875,59.8,59.8,0,0,1-74.253,3.5q-24.486-.8-43.089-18.6A62.666,62.666,0,0,1-131.652-35.3a56.29,56.29,0,0,1-4.929-23.85q0-27.189,18.6-44.838Q-100.488-120.681-74.571-121Zm1.113,53.9a9.39,9.39,0,0,1,6.917,2.783,9.615,9.615,0,0,1,2.941,6.6,9.1,9.1,0,0,1-2.544,6.757,9.407,9.407,0,0,1-6.837,3.1,9.193,9.193,0,0,1-7.155-2.7A9.331,9.331,0,0,1-83-57.4a9.377,9.377,0,0,1,2.067-5.962,9.432,9.432,0,0,1,5.247-3.419A13.4,13.4,0,0,1-73.458-67.1Zm-.159-41.181q-21.306,0-35.616,13.515-14.628,13.833-14.628,35.616-.318,20.034,15.264,34.98Q-93.333-9.7-73.935-9.222q20.511.477,35.3-14.31a49.238,49.238,0,0,0,14.946-35.3A46.531,46.531,0,0,0-37.762-93.413q-14.231-14.23-35.378-14.867Z" transform="translate(777 421)" fill="#FFFFFF"/>
  </g>
</svg>
