<svg xmlns="http://www.w3.org/2000/svg" width="1000" height="200" viewBox="0 0 4832.588 1242.486">
  <g id="g10" transform="translate(0 2182.59)">
    <g id="g12">
      <path id="path18" d="M2780.58-1934.249c-.934.267-1.947.547-3.027.827l-.093.027c-.88.24-1.44.387-2.053.547-1.547.4-3.507.92-4.48,1.173l-.146.04-.72.187-.12.027-2.4.627c-2.693.707-6.107,1.613-7.813,2.067-.16.04-.293.067-.413.107-25.36,6.773-63.826,18.08-91.493,34.267-32.413,18.96-50,44.626-26.4,110.253s88.36,171.213,134.706,230.173,74.267,71.32,97.173,76.213a134.958,134.958,0,0,0,49.707,1.08c8.934-1.267,8.934-1.267,26.04,13.093s51.333,43.093,87.853,44.853c29.173,1.413,59.813-14.387,80.866-27.227.133-.093.293-.2.467-.307q2.1-1.3,8.307-5.213l1.88-1.2c1.133-.72,2.213-1.427,3.24-2.094,4.174-2.706,7.453-4.84,10.04-6.36l2.066-1.32c.533-.307,1.2-.707,2.027-1.227,4.093-2.547,12.293-7.653,20.707-13.427s17.067-12.213,21.693-16.64,5.213-6.787,5.893-19.04,1.44-34.373-4.213-49.373a41.292,41.292,0,0,0-4.013-7.973c24.866-20.507,50.667-53.56,65.987-74.533,18.2-24.933,21.587-32.787,17.693-42.853s-15.067-22.346-74.773-66.72-167.933-120.853-243.853-147.6c-44.226-15.587-77.479-14.293-101.573-7.933-4.026-8.933-7.333-20.627-11.8-26.947-5.76-8.133-13.467-7.373-17.32-6.987s-3.854.373-10.053,1.947l-14.773,3.747-.214-.2c-5.227,1.4-10.6,2.84-14.6,3.92" fill="#ffc183" fill-rule="evenodd"/>
      <path id="path20" d="M2924.78-1476.876h0c7.253-.96,8.387,0,24.267,13.333,17.107,14.373,51.333,43.093,87.853,44.853,29.173,1.413,59.813-14.387,80.866-27.227.134-.093.293-.187.467-.307q2.1-1.3,8.307-5.213l1.88-1.2c1.134-.72,2.214-1.427,3.24-2.093,4.174-2.707,7.454-4.84,10.04-6.36l2.067-1.32c.533-.307,1.2-.707,2.027-1.227,4.093-2.547,12.293-7.653,20.707-13.427s17.067-12.213,21.693-16.64,5.213-6.787,5.893-19.04,1.44-34.373-4.213-49.373a41.277,41.277,0,0,0-4.013-7.973c23.84-19.653,48.533-50.84,64.027-71.867-16.613,4-37.76,13.627-58.226,22.92-26.854,12.2-52.52,23.813-79.146,36.027s-54.2,25.013-84.76,42.787-64.12,40.52-82.08,51.946c-13.027,8.28-17.84,10.613-20.893,11.4Zm-6.093.84c.88-.12,1.72-.227,2.506-.347-.8.08-1.64.173-2.506.347h0" fill="#ffb76f" fill-rule="evenodd"/>
      <path id="path22" d="M3014.152-1793.142c-15.346,18.36-41.08,50.053-85.573,62.093s-107.747,4.44-139.36.627-31.627-3.8-11.84,1.627,59.4,16.28,91.013,20.08,55.28.56,65.96.12,8.387,1.907-2.947,20.213-31.693,52.546-42.72,78.32-12.733,43.053-13.586,51.693-.854,8.64,3.493-3.773,13.026-37.253,29.866-64.787,41.84-57.773,67.04-83.813,50.613-47.853,63.32-58.76,12.693-10.907,11.44-17.36-3.787-19.333-5.8-26.187-3.533-7.653-6.773-5.56-8.187,7.12-23.533,25.467" fill="#e99e65" fill-rule="evenodd"/>
      <path id="path24" d="M4032.164-1735.369c-74.787-.373-158.226-13.147-263.453-57.506s-232.279-120.266-325.479-180.773-152.586-105.613-194.306-125.533-65.773-14.653-77.8-12.027l-12.027,2.64-83.066-15.787c-42.453-8.067-106.613-20.267-171.893-32.16h-.013v-.013h-.066l-.013-.013h-.053l-11.84-2.12c-11.987-2.146-35.96-6.44-68.96-11.947s-75-12.253-108.28-11.973-57.813,7.547-82.68,26.4-50.04,49.307-83.32,100.853-74.667,124.24-98.08,167.493-28.867,57.066-31.6,63.973l-2.653,6.76-.013.027-.013.027c-5.04,13.587-9.4,26.267-12.893,37.707-27.053,88.693-2.253,102.986,22.56,104.48s49.6-9.76,94.707-65.76c22.293-27.693,49.56-66.32,79.053-102.2h0l.08-.093.013-.013.013-.013.013-.027c5.92-7.187,11.92-14.267,17.987-21.133l9.147-10.72c15.573-18.267,40.893-47.933,59.933-66.52s31.826-26.106,38.026-29.867,5.826-3.747,5.64-3.747-.187,0,18.347,11.08c17.333,10.387,50.893,30.467,76.333,46.067,18.427,9.987,36.88,22.24,55.467,35.107,1.613,1.133,3.24,2.253,4.866,3.387l.013.013v.013h.027v.013h.013v.013h0c60.813,42.44,122.52,91.44,165.333,139.386,43.974,49.226,68.027,97.346,72.907,146.573s-9.387,99.6-35.32,137.933-63.52,64.64-164.626,66.52c-10.747.2-22.213.12-34.227-.173-.267-.027-.56-.04-.893-.04-2.813-.093-8.454-.267-14.854-.533s-13.52-.587-46.413-5.24-91.52-13.613-150.533-24.48-118.386-23.653-164.986-26.467-80.44,4.32-105.24,19.92a106.239,106.239,0,0,0-21.213,17.52,7.932,7.932,0,0,1-1.32,2.08c-2.573,3.413-7.747,10.227-10.333,13.64s-2.573,3.413-4.427,8.72a74.911,74.911,0,0,0-4.747,29.853c.773,13.96,6,31.28,8.613,39.947s2.613,8.667,21.773,14.307,57.507,16.907,119,39.533,146.133,56.6,192.16,74.866,53.453,20.827,57.16,22.093c.346.12.653.227.907.32,74.907,25.573,159,51.4,247.893,68.413,121.773,23.307,252.573,30.08,379.973,11.28s251.439-63.146,374.719-86.44,245.8-25.56,307.053-26.68,61.267-1.133,70.653-56.387,28.2-165.746,45.479-259.319,33.08-170.253,7.893-202.586-91.319-20.293-166.12-20.667" fill="#fc9" fill-rule="evenodd"/>
      <path id="path26" d="M2366.634-1373.3a70.233,70.233,0,0,0-1.627,19.253c.773,13.96,6,31.28,8.613,39.947s2.613,8.667,21.773,14.307c15.493,4.547,43.48,12.787,86.08,27.707.253-5.16-1.667-10.573-1.693-17.307-.013-7.013,2.053-15.467,2.907-24.4s.467-18.32-5.733-26.867-18.227-16.253-39.653-22.08-52.24-9.773-69.907-10.533l-.76-.027" fill="#ffead5" fill-rule="evenodd"/>
      <path id="path28" d="M2715.833-1965.489c3.92-2.667,7-4.507,9.227-5.853,4.546-2.747,5.56-3.493,5.707-3.693l.067.08c-.174-.12-.174-.147-.146-.147-.88-.8-1.96-1.613-3.4-2.72a176.207,176.207,0,0,1-22.187-19.907c-9.72-10.253-21.187-24.547-26.92-31.68l-5.733-7.147,4.32,8.173c4.333,8.173,12.973,24.533,22.374,39.187,5.507,8.6,11.28,16.613,16.693,23.707" fill="#e99e65" fill-rule="evenodd"/>
      <path id="path30" d="M3175.686-2112.328c-1.733.333-3.293.68-4.693.987l-12.026,2.627-24.453-4.64c6.76,1.293,16.013,3.173,28.4,6.6a491.022,491.022,0,0,1,52.8,18.24c21.053,8.547,45.293,19.827,57.413,25.467s12.12,5.64.573-.947-34.679-19.733-57.88-30.813c-14.253-6.813-28.533-12.84-40.133-17.52ZM4032.03-1735.5c-74.787-.387-158.226-13.16-263.453-57.507q-7.26-3.06-14.653-6.32-14,64.34-42.854,199.679c-21.053,98.48-48.107,225.133-95.84,323.786-34.72,71.76-80.373,128.706-125.253,173.666,93.493-21.44,185.506-50.36,277.092-67.68,123.266-23.293,245.8-25.56,307.053-26.68s61.266-1.133,70.653-56.373,28.2-165.746,45.48-259.333,33.08-170.253,7.893-202.573-91.319-20.293-166.12-20.667h0" fill="#e99e65" fill-rule="evenodd"/>
      <path id="path32" d="M3753.644-989.651l639.878-.52-.68-846.345-639.878.52h0c-20.6.013-37.147,189.493-36.947,423.2s17.026,423.159,37.626,423.146h0" fill="#f8f8f8" fill-rule="evenodd"/>
      <path id="path34" d="M3908.684-940.1l923.9-.747V-1879.2l-924.664.76h0c-22.84.013-41.173,210.079-40.973,469.2s18.893,469.159,41.733,469.132h0" fill="#333" fill-rule="evenodd"/>
      <path id="path36" d="M4832.588-1879.2l-924.664.76h0c-22.84.013-41.173,210.079-40.973,469.2.053,53.08.866,104.093,2.347,151.666,44.4-83.053,105.44-173.426,190.546-241.053,139.826-111.12,344.639-160.786,772.745-182.173v-198.4" fill="#1a1a1a" fill-rule="evenodd"/>
      <path id="path38" d="M4397.736-976.238c35.973-.027,65.133-17.413,65.12-38.827s-29.2-38.76-65.187-38.733-65.12,17.413-65.106,38.84,29.2,38.747,65.173,38.72Zm-271.093.213c35.986-.027,65.133-17.413,65.12-38.827s-29.2-38.747-65.173-38.72-65.133,17.413-65.12,38.827,29.2,38.747,65.173,38.72h0" fill="#e6e6e6" fill-rule="evenodd"/>
      <g id="Ruban">
        <path id="path40" d="M0-1676.623H2336.261v239.133H0v-239.133" fill="#fc0" fill-rule="evenodd"/>
        <path id="path42" d="M2164.995-1676.623h13.56v73.347h-13.56Zm-62.573,0h13.56v73.347h-13.56Zm-62.56,0h13.547v73.347h-13.547Zm-49.027,0h13.547v73.347h-13.547Zm-62.573,0h13.547v73.347h-13.547Zm-62.573,0h13.56v165h-13.56Zm-62.573,0h13.56v73.347h-13.56Zm-62.56,0H1754.1v73.347h-13.547Zm-62.573,0h13.547v73.347h-13.547Zm-62.573,0h13.547v73.347h-13.547Zm-62.573,0h13.547v165h-13.547Zm-49.026,0h13.56v73.347h-13.56Zm-62.573,0h13.56v73.347h-13.56Zm-62.573,0h13.56v73.347h-13.56v-73.347Zm-62.565,0h13.552v73.347H1316.1Zm-62.572,0h13.551v165h-13.551Zm-62.572,0h13.551v73.347h-13.551Zm-62.572,0h13.551v73.347h-13.551Zm-62.572,0h13.551v73.347h-13.551Zm-49.02,0h13.552v73.347h-13.552Zm-62.572,0h13.552v165H954.219Zm-62.572,0H905.2v73.347H891.647v-73.347Zm-62.572,0h13.552v73.347H829.075Zm-62.573,0h13.553v73.347H766.5Zm-62.568,0h13.548v73.347H703.934Zm-62.575,0h13.553v165H641.36Zm-62.572,0H592.34v73.347H578.788Zm-49.02,0H543.32v73.347H529.768Zm-62.572,0h13.552v73.347H467.2Zm-62.573,0h13.552v73.347H404.623Zm-62.569,0H355.6v165H342.054Zm-62.575,0h13.553v73.347H279.479Zm-62.569,0h13.552v73.347H216.91Zm-62.572,0h13.551v73.347H154.338Zm-62.573,0h13.552v73.347H91.765v-73.347Zm-49.02,0H56.3v165H42.745v-165Zm2184.821,0h13.56v165h-13.56v-165h0" fill="#4d4d4d" fill-rule="evenodd"/>
        <path id="path44" d="M2334.821-1437.49h178.146v-239.133H2334.821v239.133" fill="#969696" fill-rule="evenodd"/>
      </g>
    </g>
  </g>
</svg>
