<svg xmlns="http://www.w3.org/2000/svg" width="2500" height="800" viewBox="0 0 1615.652 1333.329">
  <g id="g10" transform="translate(-136.344 1333.329)">
    <g id="g12">
      <path id="path16" d="M366.666-574.664h-196V-751.709a59.318,59.318,0,0,1,.253-6.547,57.761,57.761,0,0,1,11.747-29.733v-86.674H352v90.008l14.667,13.007v196.985" fill="#f4be9a"/>
      <path id="path18" d="M170.666-751.709h0v0m.117-5c.035-.515.079-1.029.136-1.541a57.834,57.834,0,0,1,11.513-29.436,57.834,57.834,0,0,0-11.513,29.434c-.057.513-.1,1.028-.136,1.543" fill="#dab297"/>
      <path id="path20" d="M170.666-696.222v-55.6c0-1.64.011-3.272.117-4.892.035-.515.079-1.029.136-1.543a57.834,57.834,0,0,1,11.513-29.435l.233-.3v-.96L240.8-758.733a96.764,96.764,0,0,0,5.812,16.791,141.625,141.625,0,0,0-75.95,45.72" fill="#d9ad8f"/>
      <path id="path22" d="M377.332-872h-220V-984h13.333v-349.332h196V-984h10.667v112" fill="#b1b1b1"/>
      <path id="path24" d="M291.821-984H170.666v-65.712L291.821-984" fill="#989898"/>
      <path id="path28" d="M419.658-603.773A141.656,141.656,0,0,1,278-462.118,141.656,141.656,0,0,1,136.344-603.773,141.656,141.656,0,0,1,278-745.43,141.657,141.657,0,0,1,419.658-603.773" fill="#2e4b68"/>
      <path id="path30" d="M348.89-603.773A70.89,70.89,0,0,1,278-532.884a70.89,70.89,0,0,1-70.89-70.889A70.89,70.89,0,0,1,278-674.664a70.89,70.89,0,0,1,70.889,70.891" fill="#e2ac33"/>
      <g id="ruban">
        <path id="path26" d="M350.935-496.572H1431.1v-49.816H350.935Z" fill="#e2ac33"/>
        <path id="path32" d="M1431.1-546.388h-36.16v49.816h36.16v-49.816" fill="#999"/>
        <path id="path34" d="M432-497.331h5.333v-29.333H432Z" fill="#887b4e"/>
        <path id="path36" d="M480-497.331h5.333v-29.333H480Z" fill="#887b4e"/>
        <path id="path38" d="M528-497.331h5.333v-29.333H528Z" fill="#887b4e"/>
        <path id="path40" d="M576-497.331h5.333v-29.333H576Z" fill="#887b4e"/>
        <path id="path42" d="M624-497.331h5.333v-29.333H624Z" fill="#887b4e"/>
        <path id="path44" d="M672-497.331h5.333v-29.333H672Z" fill="#887b4e"/>
        <path id="path46" d="M720-497.331h5.333v-29.333H720Z" fill="#887b4e"/>
        <path id="path48" d="M768-497.331h5.333v-29.333H768Z" fill="#887b4e"/>
        <path id="path50" d="M816-497.331h5.333v-29.333H816Z" fill="#887b4e"/>
        <path id="path52" d="M864-497.331h5.333v-29.333H864Z" fill="#887b4e"/>
        <path id="path54" d="M912-497.331h5.333v-29.333H912Z" fill="#887b4e"/>
        <path id="path56" d="M960-497.331h5.333v-29.333H960Z" fill="#887b4e"/>
        <path id="path58" d="M1008-497.331h5.333v-29.333H1008Z" fill="#887b4e"/>
        <path id="path60" d="M1056-497.331h5.333v-29.333H1056Z" fill="#887b4e"/>
        <path id="path62" d="M1104-497.331h5.333v-29.333H1104Z" fill="#887b4e"/>
        <path id="path64" d="M1152-497.331h5.333v-29.333H1152Z" fill="#887b4e"/>
        <path id="path66" d="M1200-497.331h5.333v-29.333H1200Z" fill="#887b4e"/>
        <path id="path68" d="M1248-497.331h5.333v-29.333H1248Z" fill="#887b4e"/>
        <path id="path70" d="M1296-497.331h5.333v-29.333H1296Z" fill="#887b4e"/>
        <path id="path72" d="M1344-497.331h5.333v-29.333H1344Z" fill="#887b4e"/>
        <path id="path74" d="M456-497.331h5.333V-512H456Z" fill="#887b4e"/>
        <path id="path76" d="M504-497.331h5.333V-512H504Z" fill="#887b4e"/>
        <path id="path78" d="M552-497.331h5.333V-512H552Z" fill="#887b4e"/>
        <path id="path80" d="M600-497.331h5.333V-512H600Z" fill="#887b4e"/>
        <path id="path82" d="M648-497.331h5.333V-512H648Z" fill="#887b4e"/>
        <path id="path84" d="M696-497.331h5.333V-512H696Z" fill="#887b4e"/>
        <path id="path86" d="M744-497.331h5.333V-512H744Z" fill="#887b4e"/>
        <path id="path88" d="M792-497.331h5.333V-512H792Z" fill="#887b4e"/>
        <path id="path90" d="M840-497.331h5.333V-512H840Z" fill="#887b4e"/>
        <path id="path92" d="M888-497.331h5.333V-512H888Z" fill="#887b4e"/>
        <path id="path94" d="M936-497.331h5.333V-512H936Z" fill="#887b4e"/>
        <path id="path96" d="M984-497.331h5.333V-512H984Z" fill="#887b4e"/>
        <path id="path98" d="M1032-497.331h5.333V-512H1032Z" fill="#887b4e"/>
        <path id="path100" d="M1080-497.331h5.333V-512H1080Z" fill="#887b4e"/>
        <path id="path102" d="M1128-497.331h5.333V-512H1128Z" fill="#887b4e"/>
        <path id="path104" d="M1176-497.331h5.333V-512H1176Z" fill="#887b4e"/>
        <path id="path106" d="M1224-497.331h5.333V-512H1224Z" fill="#887b4e"/>
        <path id="path108" d="M1272-497.331h5.333V-512H1272Z" fill="#887b4e"/>
        <path id="path110" d="M1320-497.331h5.333V-512H1320Z" fill="#887b4e"/>
        <path id="path112" d="M1368-497.331h5.333V-512H1368Z" fill="#887b4e"/>
      </g>
      <path id="path114" d="M356.26-695.554s-41.443,16.437-81.041-11.5c-35.231-24.856-36.675-65.689-36.675-65.689l62.019-33.421,70.3,29.263a57.506,57.506,0,0,1,27.815,24.533l36.349,63.528a66.679,66.679,0,0,1,8.648,28.563l5.975,87.418c-.257,4.817-2.048,8.507-6.149,10.156-1.092.44-31.963,6.26-38.769-32.237l-11.721-66.769L356.26-695.554" fill="#f4be9a"/>
      <path id="path116" d="M449.311-577.792l-.871-12.752c.333,4.436.64,8.632.871,12.752" fill="#fffaf1"/>
      <path id="path118" d="M436.379-575.469a5.4,5.4,0,0,1-5.359-4.769l-.513-4.3c-.644-5.285.324-9.979,3.064-13.555,2.761-3.629,7.309-6.1,13.82-6.92.108,1.629.229,3.223.329,4.767.241,3.389.487,6.605.72,9.7l.871,12.752q.054.952.1,1.9l-12.453.389a5.356,5.356,0,0,1-.581.032m11.012-29.545c-6.511.817-11.059,3.291-13.82,6.92,5.412-.653,10.727-1.54,14.149-2.153-.1-1.544-.221-3.137-.329-4.767" fill="#fadfcd"/>
      <path id="path120" d="M433.571-598.095c2.761-3.629,7.309-6.1,13.82-6.92.108,1.629.229,3.223.329,4.767-3.423.613-8.737,1.5-14.149,2.153" fill="#fdefe6"/>
      <path id="path122" d="M322.891-458.16v-96a21.378,21.378,0,0,1,21.377-21.377,21.378,21.378,0,0,1,21.377,21.377v96a21.377,21.377,0,0,1-21.377,21.376,21.377,21.377,0,0,1-21.377-21.376" fill="#f4be9a"/>
      <path id="path124" d="M346.966-535.036l.124-.028a14.127,14.127,0,0,0,6.068-3.171,58.774,58.774,0,0,0-7.045-.408c-1.451,0-2.941.048-4.457.148-2.065.143-4.075.368-5.993.68a15.244,15.244,0,0,1-5.932-12.219l.051-5.652a4.728,4.728,0,0,1,4.641-4.755l19.548-.152h.036a4.884,4.884,0,0,1,4.8,4.976l-.056,6.231A14.579,14.579,0,0,1,347.731-535.2c-.252.061-.508.115-.765.16" fill="#fadfcd"/>
      <path id="path126" d="M343.762-534.681l-.281,0a14.274,14.274,0,0,1-8.464-3.021l.645-.109a14.367,14.367,0,0,0,8.456,3l.323,0a14.225,14.225,0,0,0,2.525-.223,14.261,14.261,0,0,1-3.2.355" fill="#fadfcd"/>
      <path id="path128" d="M344.441-534.813l-.323,0a14.367,14.367,0,0,1-8.456-3c1.919-.312,3.928-.537,5.993-.68,1.516-.1,3.007-.148,4.457-.148a58.774,58.774,0,0,1,7.045.408,14.126,14.126,0,0,1-6.068,3.171l-.124.028a14.219,14.219,0,0,1-2.525.223" fill="#fdefe6"/>
      <path id="path130" d="M271.163-451.494V-560.072a21.377,21.377,0,0,1,21.377-21.377,21.377,21.377,0,0,1,21.377,21.377v108.578a21.378,21.378,0,0,1-21.377,21.377,21.378,21.378,0,0,1-21.377-21.377" fill="#f4be9a"/>
      <path id="path132" d="M288.737-539.376A15.112,15.112,0,0,1,278-554.033l.052-5.652a4.728,4.728,0,0,1,4.641-4.755l19.548-.152h.036a4.884,4.884,0,0,1,4.8,4.976l-.056,6.231a14.811,14.811,0,0,1-5.037,11.092,59.144,59.144,0,0,0-6.537-.349c-1.452,0-2.944.048-4.461.149a63.751,63.751,0,0,0-6.639.788,14.329,14.329,0,0,0,4.387,2.329" fill="#fadfcd"/>
      <path id="path134" d="M293.1-538.681l-.285,0a14.211,14.211,0,0,1-4.077-.692,14.216,14.216,0,0,0,3.653.56l.327,0A14.048,14.048,0,0,0,296-539.2a14.127,14.127,0,0,0,5.985-3.1l.5.059a14.127,14.127,0,0,1-6.068,3.171,14.232,14.232,0,0,1-3.324.383" fill="#fadfcd"/>
      <path id="path136" d="M292.717-538.813l-.327,0a14.216,14.216,0,0,1-3.653-.56,14.33,14.33,0,0,1-4.387-2.329,63.734,63.734,0,0,1,6.639-.788c1.517-.1,3.009-.149,4.461-.149a59.13,59.13,0,0,1,6.537.349A14.127,14.127,0,0,1,296-539.2a14.052,14.052,0,0,1-3.285.383" fill="#fdefe6"/>
      <path id="path138" d="M220.126-451.494v-96A21.378,21.378,0,0,1,241.5-568.872a21.377,21.377,0,0,1,21.379,21.379v96A21.378,21.378,0,0,1,241.5-430.116a21.379,21.379,0,0,1-21.377-21.377" fill="#f4be9a"/>
      <path id="path140" d="M244.725-527.14a14.116,14.116,0,0,0,5.765-3.095,58.677,58.677,0,0,0-7.041-.408c-1.452,0-2.943.048-4.46.149-2.095.143-4.132.372-6.075.692a15.241,15.241,0,0,1-5.949-12.232l.052-5.651a4.727,4.727,0,0,1,4.641-4.756l19.547-.151h.037a4.884,4.884,0,0,1,4.8,4.975l-.057,6.231A14.577,14.577,0,0,1,244.966-527.2c-.08.02-.16.039-.241.056" fill="#fadfcd"/>
      <path id="path142" d="M241.094-526.681c-.093,0-.187,0-.281,0a14.27,14.27,0,0,1-8.463-3.021l.564-.1a14.359,14.359,0,0,0,8.44,2.984c.109,0,.217,0,.327,0a14.138,14.138,0,0,0,3.044-.327q-.15.04-.3.076a14.3,14.3,0,0,1-3.331.383" fill="#fadfcd"/>
      <path id="path144" d="M241.681-526.813c-.109,0-.217,0-.327,0a14.36,14.36,0,0,1-8.44-2.984c1.943-.32,3.98-.549,6.075-.692,1.517-.1,3.008-.149,4.46-.149a58.678,58.678,0,0,1,7.041.408,14.116,14.116,0,0,1-5.765,3.095,14.135,14.135,0,0,1-3.044.327" fill="#fdefe6"/>
      <path id="path146" d="M169.572-458.16v-78.868a21.378,21.378,0,0,1,21.377-21.379h0a21.378,21.378,0,0,1,21.377,21.379v78.868a21.377,21.377,0,0,1-21.377,21.376h0a21.377,21.377,0,0,1-21.377-21.376" fill="#f4be9a"/>
      <path id="path148" d="M193.589-516.359l.169-.039a14.13,14.13,0,0,0,6.067-3.171,58.729,58.729,0,0,0-7.043-.408c-1.452,0-2.943.048-4.46.149-2.063.14-4.068.365-5.983.677a15.248,15.248,0,0,1-5.931-12.217l.052-5.651a4.727,4.727,0,0,1,4.641-4.756l19.547-.151h.037a4.885,4.885,0,0,1,4.8,4.976l-.056,6.231a14.581,14.581,0,0,1-11.023,14.191c-.271.064-.544.121-.821.169" fill="#fadfcd"/>
      <path id="path150" d="M190.429-516.015c-.093,0-.188,0-.281,0a14.271,14.271,0,0,1-8.464-3.021c.217-.037.436-.075.656-.111a14.361,14.361,0,0,0,8.459,3c.108,0,.215,0,.323,0a14.226,14.226,0,0,0,2.468-.212,14.264,14.264,0,0,1-3.16.344" fill="#fadfcd"/>
      <path id="path152" d="M191.121-516.147c-.108,0-.215,0-.323,0a14.361,14.361,0,0,1-8.459-3c1.915-.312,3.92-.537,5.983-.677,1.517-.1,3.008-.149,4.46-.149a58.73,58.73,0,0,1,7.043.408,14.129,14.129,0,0,1-6.067,3.171l-.169.039a14.226,14.226,0,0,1-2.468.212" fill="#fdefe6"/>
      <path id="path154" d="M1659.7-618.21l-.027.151-17.08,99.953c.32.5.627,1.009.947,1.513l18.093,58.149,10.04,30.609,35.853-211.877a7.046,7.046,0,0,0-5.76-8.144,36.5,36.5,0,0,0-39.8,21.869,36.38,36.38,0,0,0-2.267,7.776" fill="#f4be9a"/>
      <path id="path156" d="M1659.7-618.21l-.027.151-1.24,7.228-15.84,92.725c.32.5.627,1.009.947,1.513l18.093,58.149,10.04,30.609,35.853-211.877a7.046,7.046,0,0,0-5.76-8.144A36.467,36.467,0,0,0,1659.7-618.21" fill="#d6ab8e"/>
      <path id="path158" d="M1703.076-613.37l2.547-15.039c-.84,5.009-1.667,10.065-2.547,15.039" fill="#fffaf1"/>
      <path id="path160" d="M1702.556-610.477a57.872,57.872,0,0,0-9.427-1.468h0c-2.24-3.5-2.72-8.3-2.213-14.056l.36-4.116a5.149,5.149,0,0,1,5.133-4.712c.133,0,.267,0,.4.015l9.667,1.325c-.293,1.685-.573,3.38-.853,5.08l-2.547,15.039q-.26,1.452-.52,2.893h0" fill="#ebd5c7"/>
      <path id="path162" d="M1619.129-686.368a36.985,36.985,0,0,0-.547,6.229l-.08,36.565-.093,34.519-.133,57.448q6.38,7.656,12.24,15.7,6.36,8.68,12.08,17.8c.32.5.627,1.009.947,1.513l18.093,58.149.307-149.52.027-18.023.213-83.445a7.052,7.052,0,0,0-7.04-7.077,36.492,36.492,0,0,0-36.013,30.141" fill="#f4be9a"/>
      <path id="path164" d="M1662.129-677.124h-.027l.027-11.556v11.557h0m.04-24.8v-.86h0v.86" fill="#fffaf1"/>
      <path id="path166" d="M1662.1-677.125c-1.747-.179-4.053-.344-6.52-.344-1.347,0-2.747.049-4.133.175h0c-2.827-3.368-4.12-8.279-4.547-14.3l-.494-4.827a5.584,5.584,0,0,1,5.12-5.975l10.64-.4v.86c-.04,4.309-.04,8.784-.04,13.247l-.027,11.556" fill="#fadfcd"/>
      <path id="path168" d="M1661.649-465.3l-18.08-51.227-.027-.068c-.04-.068-.08-.135-.12-.2q-6.1-9.8-12.907-19.123l-9.547-57.7v0l-2.56-15.419.093-34.532,39.933,32.741,3.507,2.868-.293,142.665" fill="#dfb192"/>
      <path id="path170" d="M1554.023-723.228l22.6,136.516,38.44,31.3c1.08,1.255,2.147,2.521,3.213,3.8q6.38,7.656,12.24,15.7l-12.107-73.148-24.893-150.522a7.086,7.086,0,0,0-8.133-5.809l-1.333.227a36.477,36.477,0,0,0-30.027,41.932" fill="#f4be9a"/>
      <path id="path172" d="M1570.37-624.517l-1.627-9.825v0l1.627,9.821" fill="#efd7c1"/>
      <path id="path174" d="M1630.516-535.917h0l-9.547-57.705v0l9.547,57.7" fill="#dbaf90"/>
      <path id="path176" d="M1630.516-535.917q-7.34-10.048-15.453-19.493l-40.933-46.435-3.76-22.672-1.627-9.821,49.64,38.7,2.587,2.02,9.547,57.705" fill="#e8b695"/>
      <path id="path178" d="M1701.8-606.208c-4.173-1.067-6.947-3.009-8.667-5.737a57.872,57.872,0,0,1,9.427,1.468c-.227,1.431-.493,2.857-.76,4.269" fill="#f5eae3"/>
      <path id="path180" d="M1662.089-672.278h0l.013-4.847h.027c-.013,1.64-.027,3.263-.04,4.845" fill="#fffdf8"/>
      <path id="path182" d="M1662.089-672.278c-4.853-.429-8.28-2.192-10.64-5.016,1.387-.125,2.787-.175,4.133-.175,2.467,0,4.773.165,6.52.344l-.013,4.847" fill="#fdefe6"/>
      <path id="path184" d="M1578.316-272.318a34.479,34.479,0,0,0-17.24-33.013l-62.093-35.48-58.053-39.653a73.608,73.608,0,0,1-29.653-42.027l-16.08-61.093a13.6,13.6,0,0,1,15-16.933,43.866,43.866,0,0,1,18.893,7.32,43.968,43.968,0,0,1,13.573,15.04l11.973,21.867a31.444,31.444,0,0,0,18.653,15.04l38.547,11.427a23.55,23.55,0,0,0,19.28-2.653l22.84-14.36a23.637,23.637,0,0,0,11.027-20.359l-.44-27.388-.08.093c.693-14.4-58.187-86.48-60.146-90.293a11.673,11.673,0,0,0-8.453-6.187l-26.707,1.8a15.817,15.817,0,0,0-10.587,10s-11.88,33.533-41.6,38.68c0,0-23.427,1.453-19.613-16.533l12.6-33.467,10.427-27.72A41.681,41.681,0,0,1,1446.17-642l71.92-5.333a50.266,50.266,0,0,1,34.293,20.813l62.68,71.107a311.93,311.93,0,0,1,28.48,38.813L1704.3-344.5a150.976,150.976,0,0,1,8.467,43.227l3.08,65.28h-140.8l3.267-36.32" fill="#f4be9a"/>
      <path id="path186" d="M1407.37-583.635c1.493-3.943,2.56-6.805,2.587-6.855v0h0v0c-.013.029-.067.159-.134.365l-2.453,6.489" fill="#fffaf1"/>
      <path id="path188" d="M1410.943-556.681a5.627,5.627,0,0,1-2.067-.4l-10-3.953c1.12-3,5.587-14.876,8.493-22.6l2.453-6.489c-.307.824-1.08,2.868-1.72,4.577,1.32,1.068,5.16,2.959,10.147,4.968a20.647,20.647,0,0,0-8.293-9.908h0a20.647,20.647,0,0,1,8.293,9.908,21.455,21.455,0,0,1-.413,16.279l-1.707,4.148a5.6,5.6,0,0,1-5.187,3.471" fill="#fadfcd"/>
      <path id="path190" d="M1409.823-590.124c.067-.207.12-.336.134-.365v0l-.134.363" fill="#fffdf8"/>
      <path id="path192" d="M1418.25-580.579c-4.987-2.009-8.827-3.9-10.147-4.968.64-1.709,1.413-3.753,1.72-4.577l.133-.363a20.648,20.648,0,0,1,8.293,9.908" fill="#fdefe6"/>
      <path id="path194" d="M1594.569-753.216l-.107-.653.013,0c.027.219.053.437.093.656" fill="#fffaf1"/>
      <path id="path196" d="M1599.436-723.574c-.267-1.687-.547-3.4-.853-5.181a48.106,48.106,0,0,0-11.293,1.347h0c-2.973-2.875-4.92-7.239-6.24-12.672l-1.146-4.729a5.591,5.591,0,0,1,4.053-6.736l10.506-2.323.107.653c1.2,8.2,2.733,16.683,4.013,24.46.307,1.779.587,3.495.853,5.181h0" fill="#fadfcd"/>
      <path id="path198" d="M1597.676-723.5a14.213,14.213,0,0,1-10.387-3.9,48.106,48.106,0,0,1,11.293-1.347c.307,1.779.587,3.495.853,5.181q-.9.07-1.76.069" fill="#fdefe6"/>
      <path id="path200" d="M1403.143-452.268c-.16-.928-.293-1.851-.44-2.788l.227.841c.12.635.227,1.264.333,1.887l-.12.06" fill="#fffaf1"/>
      <path id="path202" d="M1402.93-454.215l-.227-.841c-.133-.86-.28-1.731-.467-2.627.24,1.171.48,2.329.693,3.468" fill="#fadfcd"/>
      <path id="path204" d="M1396.477-478.724c-.2-.624-.413-1.253-.627-1.887l.12-.021.507,1.908" fill="#fffaf1"/>
      <path id="path206" d="M1409.263-457.007a22.168,22.168,0,0,0,2.107-3.123c-3.28.759-6.293,1.659-9.133,2.447h0a208.284,208.284,0,0,0-5.76-21.041l-.507-1.908,11.48-2.127a5.711,5.711,0,0,1,.707-.044,5.35,5.35,0,0,1,5.307,4.683l.533,4.291a22.455,22.455,0,0,1-2.547,13.556v.012a17.5,17.5,0,0,1-2.187,3.255" fill="#fadfcd"/>
      <path id="path208" d="M1403.29-452.194a.474.474,0,0,0-.027-.135c.053-.023.093-.047.146-.069l.027.129c-.053.025-.093.049-.146.075" fill="#fffaf1"/>
      <path id="path210" d="M1403.437-452.268l-.027-.129a18.969,18.969,0,0,0,5.854-4.609,17.671,17.671,0,0,1-5.827,4.739" fill="#fadfcd"/>
      <path id="path212" d="M1403.263-452.328c-.107-.623-.213-1.252-.333-1.887l.48,1.817c-.053.023-.093.047-.146.069" fill="#fffdf8"/>
      <path id="path214" d="M1403.41-452.4l-.48-1.817c-.213-1.139-.453-2.3-.693-3.468h0c2.84-.788,5.853-1.688,9.133-2.447a22.189,22.189,0,0,1-2.107,3.123,18.968,18.968,0,0,1-5.854,4.609" fill="#fdefe6"/>
      <path id="path216" d="M1532-236h220v112h-13.333V0h-196V-124H1532V-236" fill="#b1b1b1"/>
      <path id="path218" d="M1738.662-58.093,1615.263-124h123.4v65.906" fill="#989898"/>
    </g>
  </g>
</svg>
